SplineFontDB: 3.0
FontName: DOF-1-Extended
FullName: DOF-1 Extended
FamilyName: DOF-1
Weight: Extended
Copyright: he DOF-1 typeface was created by Paul Bernhard with Donald E. Knuth's typographic system METAFONT. METAFONT's bitmap ouput was converted to outlines via mftrace.
Version: 1.1
ItalicAngle: 0
UnderlinePosition: -91.0222
UnderlineWidth: 45.5111
Ascent: 819
Descent: 205
InvalidEm: 0
LayerCount: 2
Layer: 0 0 "Back" 1
Layer: 1 0 "Fore" 0
OS2Version: 0
OS2_WeightWidthSlopeOnly: 0
OS2_UseTypoMetrics: 0
CreationTime: 1494150355
ModificationTime: 1494150763
OS2TypoAscent: 0
OS2TypoAOffset: 1
OS2TypoDescent: 0
OS2TypoDOffset: 1
OS2TypoLinegap: 0
OS2WinAscent: 0
OS2WinAOffset: 1
OS2WinDescent: 0
OS2WinDOffset: 1
HheadAscent: 0
HheadAOffset: 1
HheadDescent: 0
HheadDOffset: 1
OS2Vendor: 'PfEd'
MarkAttachClasses: 1
DEI: 91125
Encoding: ISO8859-1
UnicodeInterp: none
NameList: AGL For New Fonts
DisplaySize: -48
AntiAlias: 1
FitToEm: 0
WinInfo: 0 9 10
BeginPrivate: 3
lenIV 1 4
BlueValues 2 []
ForceBold 5 false
EndPrivate
BeginChars: 260 102

StartChar: exclam
Encoding: 33 33 1
Width: 506
VWidth: 910
Flags: HW
LayerCount: 2
Fore
SplineSet
236 818 m 0
 261 822 291 816 301 806 c 2
 304 804 l 1
 304 552 l 1
 304 300 l 1
 300 297 l 2
 296 293 289 290 278 287 c 0
 267 285 240 285 229 287 c 0
 218 290 211 293 207 297 c 2
 203 300 l 1
 203 552 l 1
 203 803 l 1
 206 806 l 2
 211 811 221 815 236 818 c 0
237 36 m 0
 241 36 249 37 257 37 c 0
 269 36 272 37 280 35 c 0
 291 31 297 29 301 24 c 0
 305 20 305 18 301 14 c 0
 297 9 291 7 280 3 c 0
 271 1 269 1 253 1 c 0
 237 1 235 1 227 3 c 0
 222 5 215 6 212 8 c 0
 207 11 202 15 202 18 c 0
 202 22 205 25 210 28 c 0
 215 31 229 35 237 36 c 0
EndSplineSet
EndChar

StartChar: quotedbl
Encoding: 34 34 2
Width: 506
VWidth: 910
Flags: HW
LayerCount: 2
Fore
SplineSet
165 818 m 0
 190 822 220 816 230 806 c 2
 233 804 l 1
 233 700 l 1
 233 596 l 1
 230 593 l 2
 227 589 219 586 209 583 c 0
 202 581 198 581 183 581 c 0
 167 581 163 581 157 583 c 0
 146 586 138 589 135 593 c 2
 132 596 l 1
 132 699 l 1
 132 803 l 1
 135 806 l 2
 140 811 150 815 165 818 c 0
306 818 m 0
 331 822 361 816 371 806 c 2
 374 804 l 1
 374 700 l 1
 374 596 l 1
 371 593 l 2
 368 589 360 586 350 583 c 0
 343 581 339 581 324 581 c 0
 308 581 304 581 298 583 c 0
 287 586 279 589 276 593 c 2
 273 596 l 1
 273 699 l 1
 273 803 l 1
 276 806 l 2
 281 811 291 815 306 818 c 0
EndSplineSet
EndChar

StartChar: numbersign
Encoding: 35 35 3
Width: 1011
VWidth: 910
Flags: HW
LayerCount: 2
Fore
SplineSet
419 613 m 0
 434 615 455 614 467 610 c 0
 479 607 485 601 485 596 c 0
 485 594 472 567 445 512 c 0
 423 466 405 430 405 429 c 2
 565 429 l 1
 726 429 l 1
 758 493 l 2
 816 612 811 601 816 604 c 0
 833 616 878 618 900 607 c 0
 905 604 910 599 910 596 c 0
 910 594 892 558 869 512 c 0
 847 466 829 430 829 429 c 2
 874 429 l 2
 899 429 922 429 926 428 c 0
 953 424 967 413 958 404 c 0
 953 399 941 394 926 392 c 0
 922 391 895 391 865 391 c 2
 811 391 l 1
 770 308 l 1
 728 224 l 2
 728 223 747 223 773 223 c 0
 819 223 828 222 840 218 c 0
 851 215 859 209 859 204 c 0
 859 199 851 193 840 190 c 0
 827 185 820 186 764 186 c 2
 709 186 l 1
 667 99 l 2
 635 35 625 13 623 11 c 0
 608 -2 558 -4 535 8 c 0
 530 11 526 14 526 18 c 0
 526 20 539 48 566 103 c 0
 588 149 606 185 606 186 c 2
 446 186 l 1
 285 186 l 1
 253 121 l 2
 195 2 201 13 196 10 c 0
 179 -2 133 -4 111 7 c 0
 106 10 101 15 101 18 c 0
 101 20 119 57 142 103 c 0
 164 149 182 185 182 186 c 2
 137 186 l 2
 112 186 90 186 86 187 c 0
 59 191 45 201 54 210 c 0
 59 215 71 220 86 222 c 0
 90 223 117 223 147 223 c 2
 201 223 l 1
 242 307 l 2
 264 353 283 390 283 390 c 2
 283 391 264 391 238 391 c 0
 192 391 183 392 171 396 c 0
 160 399 152 406 152 411 c 0
 152 416 160 421 171 424 c 0
 184 429 192 429 248 429 c 2
 302 429 l 1
 344 515 l 2
 376 579 387 601 390 603 c 0
 395 608 406 611 419 613 c 0
707 390 m 2
 707 391 635 391 547 391 c 2
 386 391 l 1
 345 308 l 2
 322 262 304 224 304 224 c 2
 304 223 376 223 464 223 c 2
 625 223 l 1
 666 307 l 2
 689 353 707 390 707 390 c 2
EndSplineSet
EndChar

StartChar: dollar
Encoding: 36 36 4
Width: 910
VWidth: 910
Flags: HW
LayerCount: 2
Fore
SplineSet
438 818 m 0
 463 822 493 816 503 806 c 2
 506 804 l 1
 506 739 l 1
 506 675 l 1
 509 675 l 2
 510 675 525 676 543 678 c 0
 625 685 660 685 701 679 c 0
 767 670 801 645 807 599 c 0
 811 581 809 577 802 572 c 0
 782 560 735 560 715 572 c 0
 710 575 708 577 708 588 c 0
 706 612 699 627 684 637 c 0
 668 648 650 649 561 642 c 0
 540 640 519 638 514 637 c 2
 506 637 l 1
 506 537 l 1
 506 437 l 1
 513 438 l 2
 518 439 532 439 546 440 c 0
 661 443 753 411 788 357 c 0
 802 337 808 318 809 293 c 0
 810 260 801 234 781 213 c 0
 742 171 663 151 532 147 c 1
 506 147 l 1
 506 81 l 1
 506 15 l 1
 503 13 l 2
 486 -4 423 -3 408 13 c 2
 405 16 l 1
 405 80 l 2
 405 135 405 144 404 144 c 0
 403 144 390 143 375 142 c 0
 287 134 251 134 211 140 c 0
 170 145 143 157 125 176 c 0
 113 188 107 201 103 220 c 0
 100 238 102 243 109 248 c 0
 129 260 176 260 196 248 c 0
 201 245 203 242 203 232 c 0
 205 207 212 192 227 182 c 0
 238 175 251 172 282 173 c 0
 293 174 311 175 324 176 c 0
 336 177 356 178 370 179 c 0
 384 180 397 181 400 182 c 2
 405 182 l 1
 405 282 l 1
 405 381 l 1
 400 381 l 2
 379 378 340 378 316 380 c 0
 230 385 165 409 128 447 c 0
 113 464 102 483 97 507 c 0
 95 519 95 546 98 558 c 0
 108 602 140 631 200 650 c 0
 241 663 293 670 370 672 c 2
 405 673 l 1
 405 738 l 1
 405 803 l 1
 408 806 l 2
 413 811 423 815 438 818 c 0
405 528 m 1
 405 635 l 1
 396 635 l 2
 304 633 258 625 229 603 c 0
 209 588 199 566 197 538 c 0
 196 518 200 500 208 483 c 0
 222 456 244 437 279 426 c 0
 301 419 319 417 350 417 c 0
 372 417 380 417 398 420 c 2
 405 421 l 1
 405 528 l 1
591 400 m 0
 573 403 538 403 515 400 c 2
 507 399 l 1
 506 291 l 1
 506 184 l 1
 514 184 l 2
 529 184 564 186 580 188 c 0
 653 194 690 214 704 256 c 0
 710 274 709 302 703 323 c 0
 700 332 693 344 687 352 c 0
 668 377 634 395 591 400 c 0
EndSplineSet
EndChar

StartChar: percent
Encoding: 37 37 5
Width: 1112
VWidth: 910
Flags: HW
LayerCount: 2
Fore
SplineSet
240 824 m 0
 251 826 274 825 285 822 c 0
 300 818 309 812 309 806 c 0
 309 800 304 795 288 790 c 0
 224 768 174 712 157 644 c 0
 144 594 149 545 172 501 c 0
 191 461 224 430 259 422 c 0
 269 419 275 420 286 424 c 0
 315 434 343 458 359 487 c 0
 379 524 384 568 370 606 c 0
 366 618 365 619 370 624 c 0
 385 638 435 640 458 628 c 0
 465 624 467 622 471 609 c 0
 486 566 480 519 457 479 c 0
 427 427 375 395 306 385 c 0
 291 383 253 383 238 385 c 0
 172 393 124 418 90 463 c 0
 57 508 43 568 52 624 c 0
 59 674 82 719 118 756 c 0
 137 774 155 788 178 800 c 0
 196 810 225 821 240 824 c 0
993 818 m 0
 1001 819 1018 819 1027 818 c 0
 1052 814 1066 805 1059 796 c 0
 1055 791 148 11 144 8 c 0
 132 2 106 -2 86 1 c 0
 61 5 46 15 53 24 c 0
 58 29 965 809 970 811 c 0
 975 814 983 816 993 818 c 0
823 435 m 0
 832 436 868 435 879 434 c 0
 941 426 989 400 1022 356 c 0
 1055 311 1069 252 1060 196 c 0
 1053 146 1030 100 994 63 c 0
 965 35 933 15 892 1 c 0
 877 -4 864 -5 848 -5 c 0
 821 -3 803 4 803 13 c 0
 803 19 809 24 826 29 c 0
 889 51 938 107 955 175 c 0
 968 225 963 274 940 319 c 0
 921 358 889 389 854 397 c 0
 844 400 837 399 826 395 c 0
 797 385 770 361 754 332 c 0
 734 295 729 251 743 213 c 0
 747 201 747 200 742 195 c 0
 727 181 677 179 654 191 c 0
 647 195 646 197 642 210 c 0
 627 253 632 300 655 340 c 0
 687 396 746 430 823 435 c 0
EndSplineSet
EndChar

StartChar: ampersand
Encoding: 38 38 6
Width: 910
VWidth: 910
Flags: HW
LayerCount: 2
Fore
SplineSet
422 824 m 0
 438 825 470 825 486 824 c 0
 629 815 734 748 755 654 c 0
 762 619 759 583 744 554 c 0
 716 496 645 451 542 426 c 0
 521 421 505 417 471 412 c 0
 436 406 415 402 394 397 c 0
 377 392 351 384 350 383 c 0
 349 382 379 343 402 317 c 0
 474 232 565 156 653 102 c 0
 658 99 662 96 664 95 c 2
 668 94 l 1
 675 100 l 2
 702 123 722 153 729 186 c 0
 731 197 733 210 733 218 c 0
 733 223 732 224 735 228 c 0
 740 233 747 236 759 238 c 0
 772 241 794 241 807 238 c 0
 819 236 826 233 831 228 c 0
 834 224 834 224 834 218 c 0
 834 203 830 180 825 165 c 0
 811 127 785 93 744 66 c 2
 735 60 l 1
 737 59 l 2
 742 56 766 49 776 46 c 0
 796 41 807 38 830 37 c 0
 843 37 853 36 858 35 c 0
 875 30 885 25 885 18 c 0
 885 10 871 4 848 1 c 0
 838 -1 800 0 784 2 c 0
 750 7 714 14 684 26 c 2
 673 30 l 1
 654 25 l 2
 609 10 562 1 506 -4 c 0
 483 -6 424 -6 403 -4 c 0
 348 1 301 13 259 29 c 0
 244 35 216 49 204 56 c 0
 189 65 171 79 161 89 c 0
 120 128 100 175 102 228 c 0
 104 272 121 308 155 340 c 0
 173 357 194 371 221 385 c 0
 230 390 238 393 238 394 c 2
 238 394 235 399 230 405 c 0
 193 462 168 518 157 567 c 0
 147 614 151 654 168 690 c 0
 204 765 301 816 422 824 c 0
487 785 m 0
 478 787 446 787 439 786 c 0
 417 784 400 781 381 775 c 0
 312 752 266 704 255 644 c 0
 253 631 253 603 255 589 c 0
 262 542 282 491 316 435 c 2
 322 423 l 1
 340 428 l 2
 361 433 395 440 419 444 c 0
 454 449 468 452 484 456 c 0
 535 469 577 488 606 513 c 0
 627 530 643 553 650 575 c 0
 655 590 656 600 656 618 c 0
 656 637 655 648 650 664 c 0
 644 684 634 701 619 718 c 0
 589 752 541 778 487 785 c 0
283 333 m 0
 278 339 273 345 273 345 c 2
 273 346 270 343 265 340 c 0
 226 309 206 273 203 228 c 0
 201 187 215 150 241 117 c 0
 250 107 259 97 273 88 c 0
 287 77 294 73 312 64 c 0
 342 49 371 40 406 35 c 0
 467 26 544 34 600 56 c 2
 607 59 l 1
 593 67 l 2
 514 112 438 169 364 243 c 0
 331 276 307 303 283 333 c 0
EndSplineSet
EndChar

StartChar: parenleft
Encoding: 40 40 7
Width: 354
VWidth: 910
Flags: HW
LayerCount: 2
Fore
SplineSet
240 869 m 0
 263 872 290 866 299 857 c 0
 304 852 305 851 293 835 c 0
 224 742 179 636 161 523 c 0
 155 482 153 455 153 410 c 0
 153 365 155 337 161 297 c 0
 179 183 224 78 293 -15 c 0
 305 -31 304 -33 299 -38 c 0
 291 -46 274 -50 253 -50 c 0
 233 -50 216 -46 208 -40 c 0
 203 -36 178 -3 161 25 c 0
 104 115 68 223 56 329 c 0
 52 360 52 372 52 410 c 0
 52 448 52 460 56 492 c 0
 68 598 104 704 161 794 c 0
 178 822 203 855 208 859 c 0
 214 864 225 867 240 869 c 0
EndSplineSet
EndChar

StartChar: parenright
Encoding: 41 41 8
Width: 354
VWidth: 910
Flags: HW
LayerCount: 2
Fore
SplineSet
89 869 m 0
 110 871 137 866 147 859 c 0
 152 855 176 822 193 794 c 0
 250 704 287 598 299 492 c 0
 303 460 302 448 302 410 c 0
 302 372 303 360 299 329 c 0
 287 223 250 115 193 25 c 0
 176 -3 152 -36 147 -40 c 0
 139 -46 121 -50 102 -50 c 0
 80 -50 63 -46 55 -38 c 0
 50 -33 49 -31 61 -15 c 0
 130 78 175 183 193 297 c 0
 199 337 201 365 201 410 c 0
 201 455 199 482 193 523 c 0
 175 636 130 742 61 835 c 0
 50 850 49 852 54 857 c 0
 59 863 73 867 89 869 c 0
EndSplineSet
EndChar

StartChar: asterisk
Encoding: 42 42 9
Width: 809
VWidth: 910
Flags: HW
LayerCount: 2
Fore
SplineSet
387 818 m 0
 412 822 442 816 452 806 c 2
 455 804 l 1
 455 745 l 1
 456 686 l 1
 488 705 l 2
 508 717 522 724 526 725 c 0
 557 735 606 728 609 713 c 0
 610 710 608 706 603 703 c 0
 601 701 569 683 533 662 c 0
 496 641 466 624 466 623 c 1
 465 623 496 605 533 583 c 0
 571 561 603 542 605 540 c 0
 610 536 611 534 609 530 c 0
 605 525 596 520 581 516 c 0
 569 514 547 514 535 517 c 0
 523 519 520 521 485 541 c 0
 470 551 456 558 456 558 c 2
 455 558 455 532 455 500 c 2
 455 441 l 1
 451 437 l 2
 443 430 427 426 405 426 c 0
 382 426 366 430 358 437 c 2
 354 441 l 1
 354 500 l 2
 354 532 354 558 353 558 c 2
 353 558 339 551 324 541 c 0
 289 521 286 519 274 517 c 0
 262 514 240 514 228 516 c 0
 213 520 204 525 200 530 c 0
 198 534 199 536 204 540 c 0
 206 542 238 561 276 583 c 0
 313 605 344 623 343 623 c 1
 343 624 313 641 277 662 c 0
 240 683 209 701 207 703 c 0
 202 706 199 710 200 713 c 0
 200 717 204 720 209 723 c 0
 226 731 261 732 283 725 c 0
 287 724 301 717 321 705 c 2
 354 686 l 1
 354 745 l 1
 355 804 l 1
 358 806 l 2
 363 811 372 815 387 818 c 0
EndSplineSet
EndChar

StartChar: plus
Encoding: 43 43 10
Width: 1011
VWidth: 910
Flags: HW
LayerCount: 2
Fore
SplineSet
488 613 m 0
 513 617 543 612 553 602 c 2
 556 599 l 1
 556 462 l 1
 556 326 l 1
 737 326 l 2
 848 326 921 326 926 325 c 0
 941 323 953 318 958 313 c 0
 967 304 953 293 926 289 c 0
 921 288 848 289 737 289 c 2
 556 289 l 1
 556 152 l 1
 556 15 l 1
 553 13 l 2
 536 -4 473 -3 458 13 c 2
 455 16 l 1
 455 153 l 1
 455 289 l 1
 274 289 l 2
 163 289 91 288 86 289 c 0
 59 293 45 304 54 313 c 0
 59 318 71 323 86 325 c 0
 91 326 163 326 274 326 c 2
 455 326 l 1
 455 461 l 1
 455 598 l 1
 458 602 l 2
 463 607 473 610 488 613 c 0
EndSplineSet
EndChar

StartChar: comma
Encoding: 44 44 11
Width: 303
VWidth: 910
Flags: HW
LayerCount: 2
Fore
SplineSet
134 36 m 0
 159 40 189 35 199 25 c 2
 202 22 l 1
 202 5 l 2
 199 -56 184 -116 158 -171 c 0
 154 -179 150 -187 149 -189 c 0
 142 -196 124 -202 101 -202 c 0
 88 -202 76 -201 67 -198 c 0
 61 -196 59 -194 55 -190 c 0
 50 -185 49 -184 57 -167 c 0
 84 -111 98 -57 101 5 c 2
 101 21 l 1
 104 25 l 2
 109 30 119 33 134 36 c 0
EndSplineSet
EndChar

StartChar: hyphen
Encoding: 45 45 12
Width: 1011
VWidth: 910
Flags: HW
LayerCount: 2
Fore
SplineSet
85 325 m 0
 93 326 918 326 926 325 c 0
 953 321 967 310 958 301 c 0
 953 296 941 291 926 289 c 0
 917 288 95 288 86 289 c 0
 65 292 51 300 51 308 c 0
 51 315 66 322 85 325 c 0
EndSplineSet
EndChar

StartChar: period
Encoding: 46 46 13
Width: 303
VWidth: 910
Flags: HW
LayerCount: 2
Fore
SplineSet
130 43 m 0
 164 48 200 41 209 28 c 0
 213 23 213 21 209 16 c 0
 197 1 146 -6 113 5 c 0
 99 10 91 17 91 23 c 0
 91 26 95 31 100 34 c 0
 105 38 119 42 130 43 c 0
EndSplineSet
EndChar

StartChar: slash
Encoding: 47 47 14
Width: 708
VWidth: 910
Flags: HW
LayerCount: 2
Fore
SplineSet
589 818 m 0
 603 820 621 820 635 816 c 0
 648 813 657 806 657 801 c 0
 657 799 596 704 404 407 c 0
 266 192 150 15 149 13 c 0
 133 -3 71 -4 54 13 c 0
 52 15 51 16 51 18 c 0
 51 20 112 115 304 412 c 0
 442 627 558 804 559 806 c 0
 564 811 574 815 589 818 c 0
EndSplineSet
EndChar

StartChar: zero
Encoding: 48 48 15
Width: 910
VWidth: 910
Flags: HW
LayerCount: 2
Fore
SplineSet
426 824 m 0
 441 825 468 825 482 824 c 0
 566 818 633 789 689 736 c 0
 783 646 829 495 810 344 c 0
 792 197 715 77 608 26 c 0
 541 -5 458 -13 379 2 c 0
 318 14 265 41 221 83 c 0
 127 173 81 324 100 475 c 0
 113 581 156 673 221 736 c 0
 276 788 344 818 426 824 c 0
473 786 m 0
 454 788 437 787 417 782 c 0
 375 771 332 742 299 705 c 0
 264 666 240 622 222 568 c 0
 188 466 188 353 222 251 c 0
 240 197 264 153 299 114 c 0
 343 64 403 32 455 32 c 0
 507 32 567 64 611 114 c 0
 646 153 670 197 688 251 c 0
 722 353 722 466 688 568 c 0
 670 622 646 666 611 705 c 0
 573 750 520 780 473 786 c 0
EndSplineSet
EndChar

StartChar: one
Encoding: 49 49 16
Width: 631
VWidth: 910
Flags: HW
LayerCount: 2
Fore
SplineSet
462 818 m 0
 487 822 518 816 528 806 c 2
 531 804 l 1
 531 421 l 1
 531 37 l 1
 540 36 l 2
 559 34 570 29 575 22 c 0
 576 18 577 17 573 13 c 0
 568 8 558 4 543 1 c 0
 530 -1 429 -1 416 1 c 0
 398 4 388 8 384 15 c 0
 383 19 383 21 387 25 c 0
 392 30 405 34 421 36 c 2
 430 37 l 1
 430 370 l 1
 430 701 l 1
 421 694 l 2
 416 689 348 624 269 548 c 0
 112 399 123 409 108 405 c 0
 98 402 76 401 65 403 c 0
 45 406 31 414 31 421 c 0
 31 424 33 425 42 435 c 0
 48 440 139 528 244 627 c 0
 381 757 436 810 440 811 c 0
 445 815 452 816 462 818 c 0
EndSplineSet
EndChar

StartChar: two
Encoding: 50 50 17
Width: 910
VWidth: 910
Flags: HW
LayerCount: 2
Fore
SplineSet
430 824 m 0
 442 825 488 824 501 823 c 0
 553 817 596 805 638 783 c 0
 747 728 813 623 809 509 c 0
 805 409 745 342 609 292 c 0
 577 280 554 273 486 253 c 0
 395 226 357 213 321 194 c 0
 253 159 217 116 206 55 c 0
 205 48 204 41 204 39 c 2
 204 37 l 1
 490 37 l 2
 762 36 777 36 783 35 c 0
 797 31 803 28 807 23 c 0
 810 19 810 19 807 15 c 0
 803 10 796 6 782 2 c 0
 775 1 759 1 455 1 c 2
 136 1 l 1
 127 3 l 2
 117 5 108 9 104 13 c 2
 102 16 l 1
 102 30 l 1
 106 119 159 183 270 230 c 0
 308 246 340 257 426 282 c 0
 516 309 554 322 590 341 c 0
 658 376 694 420 705 481 c 0
 711 519 708 563 694 605 c 0
 670 672 620 730 555 762 c 0
 531 774 516 779 494 783 c 0
 467 788 444 788 418 783 c 0
 395 779 380 774 357 762 c 0
 299 734 251 684 226 625 c 0
 211 592 203 554 203 521 c 2
 203 513 l 1
 199 510 l 2
 194 505 186 502 174 499 c 0
 162 497 136 498 125 501 c 0
 116 503 108 507 104 511 c 2
 102 514 l 1
 102 528 l 1
 107 635 171 732 273 783 c 0
 320 807 371 820 430 824 c 0
EndSplineSet
EndChar

StartChar: three
Encoding: 51 51 18
Width: 910
VWidth: 910
Flags: HW
LayerCount: 2
Fore
SplineSet
421 824 m 0
 437 825 475 825 492 824 c 0
 613 817 707 783 763 728 c 0
 777 714 784 706 792 692 c 0
 802 676 807 661 812 640 c 0
 814 630 814 627 814 608 c 0
 814 589 814 586 812 576 c 0
 804 541 790 515 764 488 c 0
 731 456 684 430 625 414 c 2
 612 410 l 1
 618 409 l 2
 631 405 661 394 675 389 c 0
 766 350 815 288 815 212 c 0
 815 177 805 147 786 119 c 0
 747 60 662 17 552 2 c 0
 472 -10 393 -7 327 10 c 0
 241 33 166 77 110 139 c 0
 103 147 102 148 102 152 c 0
 102 155 103 155 105 158 c 0
 120 172 166 175 191 163 c 0
 195 161 199 158 214 143 c 0
 249 108 278 86 319 66 c 0
 354 49 385 39 421 34 c 0
 436 32 478 32 498 34 c 0
 539 39 575 48 606 62 c 0
 662 88 699 129 710 177 c 0
 715 200 715 223 710 246 c 0
 705 272 690 298 670 319 c 0
 632 356 571 382 498 389 c 0
 491 390 474 390 461 391 c 0
 435 392 426 394 416 399 c 0
 401 405 401 415 416 421 c 0
 426 426 435 428 461 429 c 0
 474 430 491 430 498 431 c 0
 570 438 631 464 669 501 c 0
 692 525 705 548 711 580 c 0
 714 595 714 621 711 636 c 0
 705 668 692 691 669 715 c 0
 631 752 572 778 498 786 c 0
 478 788 436 788 421 786 c 0
 385 781 354 770 319 753 c 0
 278 733 249 711 214 676 c 0
 199 661 195 658 191 656 c 0
 161 642 102 650 102 667 c 0
 102 671 103 672 110 680 c 0
 187 765 296 816 421 824 c 0
EndSplineSet
EndChar

StartChar: four
Encoding: 52 52 19
Width: 834
VWidth: 910
Flags: HW
LayerCount: 2
Fore
SplineSet
159 818 m 0
 190 823 228 814 228 801 c 0
 228 799 217 723 204 631 c 0
 191 539 180 463 180 463 c 2
 180 462 233 462 299 462 c 2
 418 462 l 1
 418 531 l 1
 418 599 l 1
 421 602 l 2
 438 618 499 618 516 602 c 2
 519 599 l 1
 519 531 l 1
 519 462 l 1
 631 462 l 2
 697 462 745 462 749 461 c 0
 764 459 776 455 781 450 c 0
 790 441 776 430 749 426 c 0
 745 425 697 425 631 425 c 2
 519 425 l 1
 519 220 l 1
 519 15 l 1
 516 13 l 2
 499 -4 436 -3 421 13 c 2
 418 16 l 1
 418 221 l 1
 418 425 l 1
 268 425 l 2
 178 425 116 425 111 426 c 0
 90 429 76 436 76 443 c 0
 76 447 126 799 127 803 c 0
 129 809 141 815 159 818 c 0
EndSplineSet
EndChar

StartChar: five
Encoding: 53 53 20
Width: 910
VWidth: 910
Flags: HW
LayerCount: 2
Fore
SplineSet
135 818 m 0
 140 819 208 819 459 819 c 0
 761 818 777 818 783 817 c 0
 797 813 803 810 807 805 c 0
 810 801 810 800 807 796 c 0
 803 791 797 788 783 784 c 0
 777 783 762 783 490 782 c 2
 203 782 l 1
 203 667 l 2
 203 604 203 553 204 553 c 2
 204 553 207 554 212 557 c 0
 226 565 255 579 272 586 c 0
 326 607 381 618 444 620 c 0
 585 623 705 564 770 461 c 0
 829 366 829 248 770 153 c 0
 717 68 624 13 513 -2 c 0
 454 -9 385 -5 327 10 c 0
 241 33 166 77 110 139 c 0
 103 147 102 148 102 152 c 0
 102 155 103 155 105 158 c 0
 120 172 166 175 191 163 c 0
 195 161 199 158 214 143 c 0
 249 108 278 86 319 66 c 0
 366 42 407 33 454 33 c 0
 480 33 497 35 522 43 c 0
 592 66 651 119 684 185 c 0
 699 214 707 239 712 273 c 0
 714 288 714 326 712 341 c 0
 707 375 699 401 684 431 c 0
 662 475 629 513 586 541 c 0
 554 562 519 575 482 581 c 0
 471 583 436 583 421 581 c 0
 385 576 354 565 319 548 c 0
 274 526 237 498 201 459 c 0
 197 454 195 453 190 451 c 0
 181 447 171 445 157 444 c 0
 132 443 112 449 105 457 c 2
 102 460 l 1
 102 632 l 1
 102 803 l 1
 105 806 l 2
 110 811 120 815 135 818 c 0
EndSplineSet
EndChar

StartChar: six
Encoding: 54 54 21
Width: 910
VWidth: 910
Flags: HW
LayerCount: 2
Fore
SplineSet
518 840 m 0
 528 841 554 841 566 840 c 0
 639 835 701 809 747 765 c 0
 758 754 764 749 764 745 c 0
 764 740 755 733 741 729 c 0
 736 727 729 727 717 726 c 0
 698 726 688 727 677 732 c 0
 671 734 670 734 659 745 c 0
 644 761 630 771 613 781 c 0
 579 800 547 807 519 801 c 0
 482 794 435 767 393 727 c 0
 357 694 318 644 289 597 c 0
 286 592 283 587 282 586 c 0
 281 584 281 584 283 584 c 0
 284 585 289 587 294 589 c 0
 388 629 510 630 607 593 c 0
 717 551 794 460 811 353 c 0
 832 221 761 95 634 33 c 0
 536 -13 407 -18 303 22 c 0
 217 55 149 119 117 198 c 0
 91 262 89 330 110 416 c 0
 142 543 221 676 313 755 c 0
 377 809 440 835 518 840 c 0
485 580 m 0
 476 582 447 583 440 582 c 0
 409 579 381 571 352 556 c 0
 297 530 252 485 226 431 c 0
 211 401 203 375 198 341 c 0
 196 326 196 288 198 273 c 0
 203 239 211 214 226 185 c 0
 240 158 256 134 278 112 c 0
 319 71 372 42 426 34 c 0
 441 32 469 32 484 34 c 0
 546 44 611 82 652 134 c 0
 685 174 705 220 712 273 c 0
 714 288 714 326 712 341 c 0
 707 375 699 401 684 431 c 0
 670 457 655 480 633 502 c 0
 592 543 537 573 485 580 c 0
EndSplineSet
EndChar

StartChar: seven
Encoding: 55 55 22
Width: 809
VWidth: 910
Flags: HW
LayerCount: 2
Fore
SplineSet
85 818 m 0
 93 819 716 819 724 818 c 0
 745 815 759 808 758 800 c 0
 758 798 700 716 479 405 c 0
 326 189 199 13 198 11 c 0
 184 -2 136 -4 113 7 c 0
 102 12 100 18 105 25 c 0
 106 27 227 198 374 405 c 0
 521 612 642 781 642 782 c 2
 367 782 l 2
 197 782 91 782 86 783 c 0
 65 786 51 793 51 801 c 0
 51 808 66 815 85 818 c 0
EndSplineSet
EndChar

StartChar: eight
Encoding: 56 56 23
Width: 910
VWidth: 910
Flags: HW
LayerCount: 2
Fore
SplineSet
417 824 m 0
 435 825 473 825 492 824 c 0
 652 815 765 757 795 670 c 0
 805 643 806 610 800 578 c 0
 785 504 729 458 621 430 c 0
 612 427 604 425 605 425 c 2
 605 425 613 423 621 420 c 0
 669 405 714 384 745 359 c 0
 791 322 815 276 815 221 c 0
 815 172 794 127 756 91 c 0
 737 73 716 59 689 44 c 0
 638 19 576 2 503 -4 c 0
 485 -6 425 -6 408 -4 c 0
 334 2 272 19 222 44 c 0
 194 59 173 73 154 91 c 0
 106 137 86 196 99 262 c 0
 114 336 171 383 283 411 c 0
 300 416 341 424 345 424 c 0
 349 424 346 425 335 428 c 0
 288 437 249 451 214 468 c 0
 154 498 120 537 109 589 c 0
 107 597 107 601 107 618 c 0
 107 635 107 639 109 649 c 0
 116 683 132 709 157 734 c 0
 210 785 303 818 417 824 c 0
482 786 m 0
 387 792 296 766 249 718 c 0
 228 697 215 673 210 645 c 0
 207 630 207 605 210 591 c 0
 219 548 248 515 295 491 c 0
 339 468 390 455 466 449 c 2
 492 446 l 1
 510 449 l 2
 561 458 596 467 623 482 c 0
 671 507 697 544 702 600 c 0
 707 646 693 686 661 718 c 0
 623 756 558 781 482 786 c 0
505 404 m 0
 492 406 492 406 485 405 c 0
 481 404 465 403 447 400 c 0
 365 388 325 379 290 364 c 0
 229 339 200 295 197 229 c 0
 196 186 208 151 235 118 c 0
 269 78 329 47 395 37 c 0
 419 32 428 33 455 33 c 0
 499 33 533 38 570 51 c 0
 661 82 714 145 714 221 c 0
 714 246 708 268 697 290 c 0
 684 315 665 336 637 354 c 0
 625 362 600 375 585 381 c 0
 561 390 530 399 505 404 c 0
EndSplineSet
EndChar

StartChar: nine
Encoding: 57 57 24
Width: 910
VWidth: 910
Flags: HW
LayerCount: 2
Fore
SplineSet
423 824 m 0
 428 824 442 825 453 825 c 0
 559 826 656 791 723 725 c 0
 792 659 824 569 813 471 c 0
 795 315 694 137 575 47 c 0
 513 1 454 -19 380 -22 c 0
 294 -24 217 3 163 54 c 0
 152 65 147 71 147 75 c 0
 147 80 155 86 169 90 c 0
 174 92 181 92 194 93 c 0
 212 93 222 92 233 87 c 0
 239 85 240 85 251 74 c 0
 266 58 280 48 297 38 c 0
 331 19 363 12 392 18 c 0
 428 25 475 52 518 92 c 0
 553 125 593 175 622 223 c 0
 625 227 627 232 628 233 c 0
 629 235 629 235 627 235 c 0
 626 234 621 232 616 230 c 0
 522 190 400 190 303 227 c 0
 209 262 137 334 110 422 c 0
 75 529 105 646 188 725 c 0
 248 783 328 817 423 824 c 0
485 785 m 0
 476 787 447 787 440 786 c 0
 409 783 381 776 352 761 c 0
 297 735 252 689 226 635 c 0
 211 605 203 580 198 546 c 0
 196 531 196 493 198 478 c 0
 203 444 211 419 226 390 c 0
 240 363 256 339 278 317 c 0
 319 276 372 246 426 238 c 0
 441 236 469 236 484 238 c 0
 546 248 611 287 652 339 c 0
 685 379 705 425 712 478 c 0
 714 493 714 531 712 546 c 0
 707 580 699 605 684 635 c 0
 670 661 655 685 633 707 c 0
 592 748 537 778 485 785 c 0
EndSplineSet
EndChar

StartChar: colon
Encoding: 58 58 25
Width: 303
VWidth: 910
Flags: HW
LayerCount: 2
Fore
SplineSet
130 613 m 0
 164 618 200 611 209 598 c 0
 213 593 213 591 209 586 c 0
 197 571 146 564 113 575 c 0
 99 580 91 587 91 593 c 0
 91 596 95 600 100 603 c 0
 105 607 119 612 130 613 c 0
130 43 m 0
 164 48 200 41 209 28 c 0
 213 23 213 21 209 16 c 0
 197 1 146 -6 113 5 c 0
 99 10 91 17 91 23 c 0
 91 26 95 31 100 34 c 0
 105 38 119 42 130 43 c 0
EndSplineSet
EndChar

StartChar: semicolon
Encoding: 59 59 26
Width: 303
VWidth: 910
Flags: HW
LayerCount: 2
Fore
SplineSet
130 616 m 0
 164 621 200 615 209 602 c 0
 213 597 213 595 209 590 c 0
 197 575 146 568 113 579 c 0
 99 584 91 590 91 596 c 0
 91 599 95 604 100 607 c 0
 105 611 119 615 130 616 c 0
134 36 m 0
 159 40 189 35 199 25 c 2
 202 22 l 1
 202 5 l 2
 199 -56 184 -116 158 -171 c 0
 154 -179 150 -187 149 -189 c 0
 142 -196 124 -202 101 -202 c 0
 88 -202 76 -201 67 -198 c 0
 61 -196 59 -194 55 -190 c 0
 50 -185 49 -184 57 -167 c 0
 84 -111 98 -57 101 5 c 2
 101 21 l 1
 104 25 l 2
 109 30 119 33 134 36 c 0
EndSplineSet
EndChar

StartChar: less
Encoding: 60 60 27
Width: 1011
VWidth: 910
Flags: HW
LayerCount: 2
Fore
SplineSet
892 613 m 0
 923 618 960 609 960 596 c 0
 960 591 955 587 950 584 c 0
 947 583 213 320 179 309 c 2
 174 308 l 1
 559 170 l 2
 771 94 946 32 949 30 c 0
 960 25 963 18 958 13 c 0
 946 1 908 -3 882 4 c 0
 875 5 66 293 61 296 c 0
 56 299 51 303 51 307 c 0
 51 312 56 316 61 319 c 0
 66 321 874 609 880 611 c 0
 882 612 887 612 892 613 c 0
EndSplineSet
EndChar

StartChar: equal
Encoding: 61 61 28
Width: 1011
VWidth: 910
Flags: HW
LayerCount: 2
Fore
SplineSet
85 428 m 0
 93 429 918 429 926 428 c 0
 953 424 967 413 958 404 c 0
 953 399 941 394 926 392 c 0
 917 391 95 391 86 392 c 0
 65 395 51 403 51 411 c 0
 51 418 66 425 85 428 c 0
85 223 m 0
 93 224 918 224 926 223 c 0
 953 219 967 208 958 199 c 0
 953 194 941 190 926 188 c 0
 917 187 95 187 86 188 c 0
 65 191 51 198 51 206 c 0
 51 213 66 220 85 223 c 0
EndSplineSet
EndChar

StartChar: greater
Encoding: 62 62 29
Width: 1011
VWidth: 910
Flags: HW
LayerCount: 2
Fore
SplineSet
85 613 m 0
 99 615 117 615 130 611 c 0
 136 610 945 322 950 319 c 0
 955 316 960 312 960 307 c 0
 960 303 955 299 950 296 c 0
 945 293 136 5 130 4 c 0
 103 -3 66 1 54 13 c 0
 49 18 51 25 62 30 c 0
 65 32 240 94 452 170 c 2
 837 308 l 1
 832 309 l 2
 798 320 64 583 61 584 c 0
 56 587 51 591 51 596 c 0
 51 603 66 610 85 613 c 0
EndSplineSet
EndChar

StartChar: question
Encoding: 63 63 30
Width: 809
VWidth: 910
Flags: HW
LayerCount: 2
Fore
SplineSet
380 824 m 0
 390 825 438 824 451 823 c 0
 531 814 598 789 654 744 c 0
 666 734 689 711 699 698 c 0
 714 678 731 651 740 629 c 0
 767 559 764 478 730 409 c 0
 710 369 685 337 650 309 c 0
 602 270 543 246 471 239 c 0
 457 237 408 237 395 239 c 0
 375 241 362 246 357 252 c 2
 354 255 l 1
 354 280 l 1
 354 306 l 1
 357 309 l 2
 364 317 380 321 405 321 c 0
 429 321 445 317 452 309 c 2
 455 306 l 1
 455 291 l 2
 455 283 455 277 456 277 c 2
 456 277 461 277 467 279 c 0
 497 285 531 303 559 325 c 0
 572 335 590 354 600 366 c 0
 646 426 666 500 654 574 c 0
 650 597 643 617 632 642 c 0
 619 667 604 688 583 709 c 0
 529 763 452 792 385 786 c 0
 346 782 304 768 268 743 c 0
 215 708 176 655 161 596 c 0
 156 578 152 552 152 535 c 0
 152 529 152 529 149 526 c 0
 132 509 71 509 54 526 c 2
 51 529 l 1
 51 542 l 2
 54 599 74 652 110 698 c 0
 120 711 144 734 157 744 c 0
 189 770 225 789 266 803 c 0
 301 815 334 821 380 824 c 0
389 36 m 0
 398 37 422 37 431 35 c 0
 464 28 464 10 431 3 c 0
 418 0 392 0 379 3 c 0
 364 7 354 12 354 18 c 0
 354 26 367 33 389 36 c 0
EndSplineSet
EndChar

StartChar: at
Encoding: 64 64 31
Width: 1213
VWidth: 910
Flags: HW
LayerCount: 2
Fore
SplineSet
568 789 m 0
 610 792 659 789 705 783 c 0
 858 762 989 688 1059 583 c 0
 1091 535 1109 488 1116 432 c 0
 1118 416 1118 371 1116 356 c 0
 1111 317 1102 283 1088 257 c 0
 1056 199 1005 164 936 153 c 0
 918 150 882 150 866 152 c 0
 832 157 805 168 789 183 c 2
 786 186 l 1
 782 184 l 2
 775 179 751 171 739 167 c 0
 694 153 646 146 600 147 c 0
 533 149 478 169 435 205 c 0
 389 244 361 297 351 360 c 0
 349 375 349 412 351 427 c 0
 361 489 389 542 435 581 c 0
 470 611 513 629 566 636 c 0
 579 638 585 638 609 638 c 0
 644 638 667 636 699 629 c 0
 745 619 790 601 828 576 c 0
 838 569 857 555 861 551 c 2
 865 547 l 1
 865 388 l 1
 866 229 l 1
 867 223 l 2
 872 208 881 196 893 190 c 2
 899 188 l 1
 906 189 l 2
 926 195 949 211 965 229 c 0
 993 262 1009 303 1015 358 c 0
 1017 373 1017 415 1015 431 c 0
 1006 502 978 561 928 616 c 0
 865 684 768 733 670 748 c 0
 646 752 634 752 607 752 c 0
 572 752 550 750 518 744 c 0
 452 730 390 702 337 662 c 0
 258 603 210 524 198 431 c 0
 196 413 196 372 198 355 c 0
 206 289 232 233 273 183 c 0
 341 101 449 47 563 35 c 0
 580 33 579 31 579 35 c 0
 579 40 577 44 573 45 c 0
 564 48 556 54 556 59 c 0
 556 62 561 67 566 69 c 0
 580 76 603 79 626 76 c 0
 652 72 669 64 676 49 c 0
 679 44 679 42 679 35 c 0
 679 28 679 27 676 22 c 0
 666 4 642 -5 602 -5 c 0
 546 -5 480 4 426 19 c 0
 334 44 255 90 198 149 c 0
 141 207 107 275 97 353 c 0
 95 370 95 414 97 432 c 0
 103 482 121 527 146 569 c 0
 224 696 380 778 568 789 c 0
628 601 m 0
 615 602 603 602 595 601 c 0
 581 598 560 590 545 579 c 0
 511 557 484 523 467 481 c 0
 456 453 451 426 451 393 c 0
 451 352 459 319 477 284 c 0
 501 238 541 202 582 188 c 0
 595 184 601 184 616 184 c 0
 661 187 712 206 754 238 c 2
 764 245 l 1
 764 392 l 1
 764 541 l 1
 755 547 l 2
 715 577 671 596 628 601 c 0
EndSplineSet
EndChar

StartChar: A
Encoding: 65 65 32
Width: 961
VWidth: 910
Flags: HW
LayerCount: 2
Fore
SplineSet
387 818 m 0
 398 820 562 820 574 818 c 0
 589 815 598 811 603 806 c 0
 605 804 633 727 745 412 c 0
 821 197 885 20 885 18 c 0
 885 5 848 -4 816 1 c 0
 801 4 792 8 787 13 c 0
 785 15 770 56 718 203 c 2
 651 391 l 1
 481 391 l 1
 310 391 l 1
 243 203 l 2
 191 56 176 15 174 13 c 0
 169 8 160 4 145 1 c 0
 113 -4 76 5 76 18 c 0
 76 20 140 197 216 412 c 0
 328 727 356 804 358 806 c 0
 363 811 372 815 387 818 c 0
574 606 m 2
 512 782 l 1
 481 782 l 1
 449 782 l 1
 387 606 l 2
 352 509 324 430 324 430 c 2
 324 429 395 429 481 429 c 0
 567 429 637 429 637 430 c 2
 637 430 609 509 574 606 c 2
EndSplineSet
EndChar

StartChar: B
Encoding: 66 66 33
Width: 910
VWidth: 910
Flags: HW
LayerCount: 2
Fore
SplineSet
343 826 m 0
 380 827 474 827 499 826 c 0
 588 820 650 807 699 783 c 0
 744 761 772 734 790 698 c 0
 802 673 807 648 809 614 c 0
 810 588 807 567 800 546 c 0
 778 480 717 437 612 414 c 0
 605 412 599 411 600 411 c 0
 601 410 604 409 609 408 c 0
 632 404 665 394 686 386 c 0
 760 356 801 312 812 248 c 0
 814 237 814 233 814 213 c 0
 814 187 813 177 808 157 c 0
 803 135 796 118 785 102 c 0
 752 53 692 21 602 5 c 0
 573 0 540 -3 496 -6 c 0
 472 -8 362 -8 323 -6 c 0
 197 -1 146 0 116 0 c 0
 84 0 66 5 58 13 c 0
 54 18 54 20 58 25 c 0
 63 30 76 34 93 36 c 2
 102 37 l 1
 102 215 l 1
 102 391 l 1
 93 392 l 2
 78 394 65 397 60 402 c 0
 57 405 55 409 56 411 c 0
 58 419 72 426 93 428 c 2
 102 429 l 1
 102 605 l 1
 102 782 l 1
 93 783 l 2
 73 785 61 790 56 797 c 0
 55 801 55 802 59 806 c 0
 65 814 85 819 116 819 c 0
 140 819 185 820 258 824 c 0
 292 825 329 825 343 826 c 0
484 788 m 0
 464 789 382 790 351 789 c 0
 336 788 299 787 266 786 c 0
 234 784 206 784 205 784 c 2
 203 784 l 1
 203 606 l 1
 203 429 l 1
 281 429 l 2
 421 429 478 431 536 441 c 0
 608 453 657 478 683 516 c 0
 701 542 709 575 708 614 c 0
 706 645 702 669 690 692 c 0
 679 715 663 733 642 747 c 0
 631 754 611 764 597 769 c 0
 569 779 531 785 484 788 c 0
431 390 m 0
 419 391 364 390 307 391 c 2
 203 391 l 1
 203 214 l 1
 203 35 l 1
 207 35 l 2
 209 35 225 35 244 35 c 0
 417 28 478 27 537 35 c 0
 593 42 634 59 663 84 c 0
 695 112 711 152 714 206 c 0
 717 285 679 338 601 364 c 0
 560 379 510 386 431 390 c 0
EndSplineSet
EndChar

StartChar: C
Encoding: 67 67 34
Width: 910
VWidth: 910
Flags: HW
LayerCount: 2
Fore
SplineSet
431 824 m 0
 440 825 490 824 502 823 c 0
 575 817 641 799 701 770 c 0
 747 747 787 721 823 687 c 0
 837 674 839 671 839 667 c 0
 839 663 835 660 830 656 c 0
 813 648 777 647 755 654 c 0
 748 657 746 657 732 671 c 0
 712 689 694 704 671 719 c 0
 616 755 556 778 493 786 c 0
 475 788 441 788 430 786 c 0
 339 768 258 682 220 563 c 0
 188 465 188 354 220 256 c 0
 258 137 339 52 430 34 c 0
 441 32 475 32 493 34 c 0
 580 45 663 84 732 148 c 0
 746 162 748 163 755 166 c 0
 781 175 826 170 836 157 c 0
 838 155 839 154 839 152 c 0
 839 148 837 145 823 132 c 0
 757 71 674 28 583 8 c 0
 538 -1 503 -6 457 -5 c 0
 422 -5 406 -3 378 2 c 0
 284 21 211 76 158 165 c 0
 102 261 82 391 105 508 c 0
 123 601 164 680 221 736 c 0
 277 789 345 819 431 824 c 0
EndSplineSet
EndChar

StartChar: D
Encoding: 68 68 35
Width: 884
VWidth: 910
Flags: HW
LayerCount: 2
Fore
SplineSet
88 818 m 0
 98 819 161 819 191 817 c 0
 269 812 328 805 390 791 c 0
 577 752 708 676 771 570 c 0
 793 533 806 495 812 450 c 0
 814 432 814 387 812 370 c 0
 806 324 793 286 771 249 c 0
 705 137 558 57 352 21 c 0
 284 8 203 1 134 0 c 0
 99 0 88 0 76 4 c 0
 65 7 59 10 56 15 c 0
 55 19 55 21 59 25 c 0
 64 30 77 34 93 36 c 2
 102 37 l 1
 102 410 l 1
 102 782 l 1
 93 783 l 2
 78 785 65 788 60 793 c 0
 57 796 55 800 56 802 c 0
 58 809 70 814 88 818 c 0
236 775 m 0
 224 777 211 777 208 778 c 2
 203 778 l 1
 203 410 l 1
 203 41 l 1
 208 41 l 1
 267 47 305 53 346 62 c 0
 458 87 546 127 610 183 c 0
 660 227 694 286 706 348 c 0
 711 371 712 383 712 410 c 0
 712 444 709 467 702 494 c 0
 684 557 645 610 588 654 c 0
 505 717 382 760 236 775 c 0
EndSplineSet
EndChar

StartChar: E
Encoding: 69 69 36
Width: 884
VWidth: 910
Flags: HW
LayerCount: 2
Fore
SplineSet
88 818 m 0
 97 819 763 820 774 818 c 0
 800 814 815 805 806 795 c 0
 802 790 789 785 774 783 c 0
 769 782 660 782 485 782 c 2
 203 782 l 1
 203 615 l 1
 203 448 l 1
 460 448 l 2
 734 448 724 448 739 443 c 0
 764 436 764 422 739 415 c 0
 724 410 734 411 460 411 c 2
 203 411 l 1
 203 224 l 1
 203 37 l 1
 485 37 l 2
 660 37 769 37 774 36 c 0
 800 32 815 23 806 13 c 0
 802 8 789 3 774 1 c 0
 769 0 640 0 432 0 c 0
 143 0 95 0 88 1 c 0
 70 4 60 8 56 15 c 0
 55 19 55 21 59 25 c 0
 64 30 77 34 93 36 c 2
 102 37 l 1
 102 224 l 1
 102 411 l 1
 93 411 l 2
 78 413 65 416 60 421 c 0
 57 424 55 429 56 431 c 0
 58 439 72 445 93 447 c 2
 102 448 l 1
 102 615 l 1
 102 782 l 1
 93 783 l 2
 78 785 65 788 60 793 c 0
 57 796 55 800 56 802 c 0
 58 809 70 814 88 818 c 0
EndSplineSet
EndChar

StartChar: F
Encoding: 70 70 37
Width: 884
VWidth: 910
Flags: HW
LayerCount: 2
Fore
SplineSet
88 818 m 0
 97 819 763 820 774 818 c 0
 800 814 815 805 806 795 c 0
 802 790 789 785 774 783 c 0
 769 782 660 782 485 782 c 2
 203 782 l 1
 203 615 l 1
 203 448 l 1
 460 448 l 2
 734 448 724 448 739 443 c 0
 764 436 764 422 739 415 c 0
 724 410 734 411 460 411 c 2
 203 411 l 1
 203 213 l 1
 203 15 l 1
 200 13 l 2
 183 -4 120 -3 105 13 c 2
 102 16 l 1
 102 213 l 1
 102 411 l 1
 93 411 l 2
 78 413 65 416 60 421 c 0
 57 424 55 429 56 431 c 0
 58 439 72 445 93 447 c 2
 102 448 l 1
 102 615 l 1
 102 782 l 1
 93 783 l 2
 78 785 65 788 60 793 c 0
 57 796 55 800 56 802 c 0
 58 809 70 814 88 818 c 0
EndSplineSet
EndChar

StartChar: G
Encoding: 71 71 38
Width: 910
VWidth: 910
Flags: HW
LayerCount: 2
Fore
SplineSet
431 824 m 0
 454 826 487 825 514 821 c 0
 611 811 700 774 770 715 c 0
 784 703 812 675 814 671 c 0
 815 666 814 665 810 661 c 0
 799 650 761 646 735 653 c 0
 723 656 721 657 704 674 c 0
 695 683 683 694 678 699 c 0
 618 750 547 781 476 786 c 0
 452 788 431 786 411 780 c 0
 328 755 255 673 220 563 c 0
 188 465 188 354 220 256 c 0
 255 146 328 64 411 39 c 0
 431 33 452 31 476 33 c 0
 557 39 638 78 701 142 c 2
 714 155 l 1
 714 273 l 1
 714 391 l 1
 575 391 l 1
 438 392 l 1
 430 394 l 2
 397 402 397 418 430 426 c 2
 438 428 l 1
 627 429 l 2
 764 429 819 429 825 428 c 0
 839 426 851 423 856 418 c 0
 859 415 860 411 859 409 c 0
 857 401 844 395 824 392 c 2
 815 391 l 1
 815 270 l 1
 815 149 l 1
 806 140 l 2
 801 135 794 127 789 122 c 0
 717 53 624 11 518 -2 c 0
 394 -17 296 12 221 83 c 0
 143 159 96 281 96 410 c 0
 96 498 118 586 158 655 c 0
 210 743 284 798 378 817 c 0
 392 820 418 823 431 824 c 0
EndSplineSet
EndChar

StartChar: H
Encoding: 72 72 39
Width: 910
VWidth: 910
Flags: HW
LayerCount: 2
Fore
SplineSet
135 818 m 0
 160 822 190 816 200 806 c 2
 203 804 l 1
 203 625 l 1
 203 448 l 1
 456 448 l 1
 708 448 l 1
 708 625 l 1
 708 803 l 1
 711 806 l 2
 726 822 789 823 806 806 c 2
 809 804 l 1
 809 626 l 1
 809 448 l 1
 818 447 l 2
 833 445 845 442 850 437 c 0
 853 434 855 430 854 428 c 0
 852 420 838 414 818 411 c 2
 809 411 l 1
 809 213 l 1
 809 15 l 1
 806 13 l 2
 789 -4 726 -3 711 13 c 2
 708 16 l 1
 708 214 l 1
 708 411 l 1
 456 411 l 1
 203 411 l 1
 203 213 l 1
 203 15 l 1
 200 13 l 2
 183 -4 120 -3 105 13 c 2
 102 16 l 1
 102 213 l 1
 102 411 l 1
 93 411 l 2
 78 413 65 416 60 421 c 0
 57 424 55 429 56 431 c 0
 58 439 72 445 93 447 c 2
 102 448 l 1
 102 625 l 1
 102 803 l 1
 105 806 l 2
 110 811 120 815 135 818 c 0
EndSplineSet
EndChar

StartChar: I
Encoding: 73 73 40
Width: 556
VWidth: 910
Flags: HW
LayerCount: 2
Fore
SplineSet
216 818 m 0
 224 819 332 819 340 818 c 0
 367 814 380 804 371 795 c 0
 365 789 354 785 338 783 c 2
 329 782 l 1
 329 410 l 1
 329 37 l 1
 338 36 l 2
 354 34 365 31 371 25 c 0
 380 16 367 5 340 1 c 0
 331 0 226 0 217 1 c 0
 190 5 176 16 185 25 c 0
 191 31 202 34 218 36 c 2
 228 37 l 1
 228 410 l 1
 228 782 l 1
 218 783 l 2
 196 786 182 792 182 801 c 0
 182 808 197 815 216 818 c 0
EndSplineSet
EndChar

StartChar: J
Encoding: 74 74 41
Width: 758
VWidth: 910
Flags: HW
LayerCount: 2
Fore
SplineSet
542 818 m 0
 553 819 658 819 670 818 c 0
 688 815 698 811 702 804 c 0
 703 800 703 799 699 795 c 0
 694 790 682 785 666 783 c 2
 657 782 l 1
 657 505 l 2
 656 196 657 225 650 197 c 0
 643 166 626 132 605 106 c 0
 595 93 575 74 560 63 c 0
 515 30 464 10 400 3 c 0
 377 0 332 0 309 3 c 0
 232 12 168 40 122 86 c 0
 107 101 100 110 90 125 c 0
 66 160 53 199 51 242 c 2
 51 255 l 1
 54 259 l 2
 60 265 72 268 90 270 c 0
 115 273 141 268 148 259 c 0
 152 255 152 254 152 248 c 0
 152 218 161 184 176 155 c 0
 187 134 200 116 217 99 c 0
 247 69 284 49 325 40 c 0
 335 38 339 38 354 38 c 0
 369 38 373 38 383 40 c 0
 404 45 424 52 441 62 c 0
 503 97 542 152 554 221 c 0
 555 230 555 248 556 506 c 2
 556 782 l 1
 547 783 l 2
 532 785 519 788 514 793 c 0
 511 796 510 800 511 802 c 0
 513 809 524 814 542 818 c 0
EndSplineSet
EndChar

StartChar: K
Encoding: 75 75 42
Width: 884
VWidth: 910
Flags: HW
LayerCount: 2
Fore
SplineSet
135 818 m 0
 160 822 190 816 200 806 c 2
 203 804 l 1
 203 643 l 1
 204 481 l 1
 457 644 l 2
 596 733 712 808 715 810 c 0
 734 821 775 822 798 812 c 0
 808 807 811 800 806 795 c 0
 805 793 677 711 522 611 c 0
 367 512 241 430 240 430 c 0
 238 429 241 428 249 429 c 0
 264 429 284 426 293 421 c 0
 298 419 802 29 806 25 c 0
 811 20 808 12 798 7 c 0
 777 -3 737 -3 718 7 c 0
 714 9 212 398 206 403 c 2
 203 406 l 1
 203 211 l 1
 203 15 l 1
 200 13 l 2
 183 -4 120 -3 105 13 c 2
 102 16 l 1
 102 410 l 1
 102 803 l 1
 105 806 l 2
 110 811 120 815 135 818 c 0
EndSplineSet
EndChar

StartChar: L
Encoding: 76 76 43
Width: 859
VWidth: 910
Flags: HW
LayerCount: 2
Fore
SplineSet
135 818 m 0
 160 822 190 816 200 806 c 2
 203 804 l 1
 203 421 l 1
 203 37 l 1
 485 37 l 2
 660 37 769 37 774 36 c 0
 789 34 801 30 806 25 c 0
 815 16 801 5 774 1 c 0
 769 0 640 0 432 0 c 0
 143 0 95 0 88 1 c 0
 70 4 60 8 56 15 c 0
 55 19 55 21 59 25 c 0
 64 30 77 34 93 36 c 2
 102 37 l 1
 102 421 l 1
 102 803 l 1
 105 806 l 2
 110 811 120 815 135 818 c 0
EndSplineSet
EndChar

StartChar: M
Encoding: 77 77 44
Width: 1314
VWidth: 910
Flags: HW
LayerCount: 2
Fore
SplineSet
135 818 m 0
 140 818 147 819 156 819 c 0
 174 818 187 815 196 810 c 0
 199 808 248 745 429 513 c 0
 606 285 658 219 659 220 c 0
 659 221 761 353 886 512 c 0
 1010 671 1112 803 1114 806 c 0
 1120 812 1130 815 1145 818 c 0
 1170 822 1201 816 1211 806 c 2
 1213 804 l 1
 1213 410 l 1
 1213 15 l 1
 1211 13 l 2
 1194 -4 1131 -3 1116 13 c 2
 1113 15 l 1
 1112 341 l 1
 1112 667 l 1
 909 407 l 2
 797 264 706 146 704 145 c 0
 700 141 692 138 682 136 c 0
 669 133 647 133 634 136 c 0
 624 138 616 141 612 145 c 0
 610 146 518 264 406 407 c 2
 204 667 l 1
 203 341 l 1
 203 15 l 1
 200 13 l 2
 183 -4 120 -3 105 13 c 2
 102 16 l 1
 102 410 l 1
 102 803 l 1
 105 806 l 2
 110 811 120 815 135 818 c 0
EndSplineSet
EndChar

StartChar: N
Encoding: 78 78 45
Width: 910
VWidth: 910
Flags: HW
LayerCount: 2
Fore
SplineSet
135 818 m 0
 140 818 147 819 156 819 c 0
 174 818 187 815 196 810 c 0
 199 808 252 740 453 480 c 2
 708 152 l 1
 708 478 l 1
 709 804 l 1
 712 806 l 2
 727 822 789 823 806 806 c 2
 809 804 l 1
 809 410 l 1
 809 15 l 1
 806 13 l 2
 796 3 766 -3 741 1 c 0
 725 4 716 8 710 15 c 0
 707 18 592 165 455 343 c 2
 204 667 l 1
 203 341 l 1
 203 15 l 1
 200 13 l 2
 183 -4 120 -3 105 13 c 2
 102 16 l 1
 102 410 l 1
 102 803 l 1
 105 806 l 2
 110 811 120 815 135 818 c 0
EndSplineSet
EndChar

StartChar: O
Encoding: 79 79 46
Width: 1163
VWidth: 910
Flags: HW
LayerCount: 2
Fore
SplineSet
543 824 m 0
 573 826 613 825 647 821 c 0
 777 808 894 758 976 679 c 0
 1034 622 1072 552 1086 476 c 0
 1091 451 1091 440 1091 410 c 0
 1091 374 1088 351 1080 319 c 0
 1055 220 988 134 890 75 c 0
 865 60 843 49 814 37 c 0
 652 -28 448 -18 299 61 c 0
 179 124 98 226 77 343 c 0
 72 368 72 380 72 410 c 0
 72 446 75 469 83 502 c 0
 99 568 136 628 188 679 c 0
 276 764 400 815 543 824 c 0
624 786 m 0
 612 787 569 787 560 786 c 0
 558 786 550 787 544 786 c 0
 511 783 475 775 441 763 c 0
 364 736 295 687 248 627 c 0
 207 574 182 516 174 449 c 0
 172 431 172 388 174 370 c 0
 182 303 207 245 248 192 c 0
 311 111 412 53 519 37 c 0
 543 32 555 33 582 33 c 0
 609 33 620 32 645 37 c 0
 751 53 853 111 916 192 c 0
 957 245 981 303 989 370 c 0
 991 388 991 431 989 449 c 0
 981 516 957 574 916 627 c 0
 849 713 741 773 624 786 c 0
EndSplineSet
EndChar

StartChar: P
Encoding: 80 80 47
Width: 884
VWidth: 910
Flags: HW
LayerCount: 2
Fore
SplineSet
365 826 m 0
 416 828 480 828 519 824 c 0
 684 812 776 763 804 675 c 0
 811 651 813 635 813 605 c 0
 813 575 811 559 804 535 c 0
 776 447 684 399 520 387 c 0
 472 383 391 382 321 385 c 0
 307 386 280 387 260 387 c 0
 239 388 218 389 213 390 c 2
 203 390 l 1
 203 203 l 1
 203 15 l 1
 200 13 l 2
 183 -4 120 -3 105 13 c 2
 102 16 l 1
 102 204 l 1
 102 391 l 1
 93 392 l 2
 78 394 65 397 60 402 c 0
 57 405 55 409 56 411 c 0
 58 419 72 426 93 428 c 2
 102 429 l 1
 102 605 l 1
 102 782 l 1
 93 783 l 2
 73 785 61 790 56 797 c 0
 55 801 55 802 59 806 c 0
 66 814 85 819 116 819 c 0
 140 819 188 820 248 823 c 0
 292 825 344 826 365 826 c 0
490 788 m 0
 476 789 391 790 373 789 c 0
 368 789 349 789 333 788 c 0
 316 787 282 787 257 786 c 0
 232 785 210 784 207 784 c 2
 203 784 l 1
 203 605 l 1
 203 427 l 1
 207 427 l 2
 210 427 232 426 257 425 c 0
 282 424 316 423 332 422 c 0
 371 420 467 420 488 422 c 0
 553 427 590 435 624 451 c 0
 675 476 703 515 711 575 c 0
 713 587 713 623 711 635 c 0
 703 695 675 734 624 759 c 0
 590 775 552 783 490 788 c 0
EndSplineSet
EndChar

StartChar: Q
Encoding: 81 81 48
Width: 1163
VWidth: 910
Flags: HW
LayerCount: 2
Fore
SplineSet
543 824 m 0
 573 826 613 825 647 821 c 0
 777 808 894 758 976 679 c 0
 1034 622 1072 552 1086 476 c 0
 1091 451 1091 440 1091 410 c 0
 1091 374 1088 351 1080 319 c 0
 1062 246 1020 180 960 126 c 2
 954 120 l 1
 1007 72 l 2
 1040 43 1060 23 1061 21 c 0
 1063 16 1059 11 1051 7 c 0
 1032 -2 991 -2 972 7 c 0
 967 9 960 15 937 37 c 0
 920 52 903 67 899 71 c 2
 893 76 l 1
 884 71 l 2
 861 58 840 48 814 37 c 0
 652 -28 448 -18 299 61 c 0
 179 124 98 226 77 343 c 0
 72 368 72 380 72 410 c 0
 72 446 75 469 83 502 c 0
 99 568 136 628 188 679 c 0
 276 764 400 815 543 824 c 0
624 786 m 0
 612 787 569 787 560 786 c 0
 558 786 550 787 544 786 c 0
 511 783 475 775 441 763 c 0
 364 736 295 687 248 627 c 0
 207 574 182 516 174 449 c 0
 172 431 172 388 174 370 c 0
 182 303 207 245 248 192 c 0
 316 105 426 46 544 34 c 0
 559 32 604 32 619 34 c 0
 697 42 772 69 834 114 c 2
 844 121 l 1
 842 124 l 2
 841 125 824 140 804 157 c 0
 779 180 768 191 767 193 c 0
 767 194 767 196 769 198 c 0
 776 212 823 217 852 208 c 0
 859 205 863 203 882 187 c 2
 898 171 l 1
 902 176 l 2
 914 190 934 217 944 234 c 0
 969 276 983 320 989 370 c 0
 991 388 991 431 989 449 c 0
 981 516 957 574 916 627 c 0
 849 713 741 773 624 786 c 0
EndSplineSet
EndChar

StartChar: R
Encoding: 82 82 49
Width: 910
VWidth: 910
Flags: HW
LayerCount: 2
Fore
SplineSet
403 830 m 0
 419 831 514 830 529 829 c 0
 621 823 684 811 733 786 c 0
 796 754 828 708 837 638 c 0
 839 627 839 585 837 573 c 0
 831 526 815 490 785 461 c 0
 750 428 699 406 628 393 c 0
 603 388 569 384 533 381 c 0
 514 380 499 380 450 380 c 0
 416 380 381 380 370 381 c 0
 358 381 349 382 349 382 c 2
 349 381 459 301 593 204 c 0
 727 106 837 25 838 24 c 0
 842 19 838 12 829 7 c 0
 808 -3 768 -3 749 7 c 0
 746 8 631 92 492 194 c 0
 353 295 237 380 233 383 c 2
 227 388 l 1
 215 389 l 1
 203 389 l 1
 203 202 l 1
 203 15 l 1
 200 13 l 2
 183 -4 120 -3 105 13 c 2
 102 16 l 1
 102 204 l 1
 102 391 l 1
 93 392 l 2
 76 394 63 399 58 404 c 0
 54 409 54 411 58 416 c 0
 63 421 76 426 93 428 c 2
 102 429 l 1
 102 605 l 1
 102 782 l 1
 93 783 l 2
 76 785 63 790 58 795 c 0
 54 800 54 801 58 806 c 0
 63 811 76 816 91 818 c 0
 96 818 114 819 133 819 c 0
 170 820 205 822 287 826 c 0
 317 828 353 828 368 829 c 0
 383 830 398 830 403 830 c 0
520 792 m 0
 501 793 424 794 396 793 c 0
 382 792 359 791 344 791 c 0
 328 790 292 788 264 786 c 0
 236 785 211 785 208 784 c 2
 203 784 l 1
 203 605 l 1
 203 427 l 1
 207 427 l 2
 212 426 227 426 232 427 c 0
 234 428 241 428 248 429 c 0
 262 429 273 428 284 424 c 0
 292 422 301 422 376 419 c 0
 410 417 497 417 518 419 c 0
 553 422 581 425 605 431 c 0
 687 452 730 502 737 584 c 0
 741 626 734 666 719 698 c 0
 712 712 704 723 692 735 c 0
 680 747 669 755 652 763 c 0
 618 779 580 787 520 792 c 0
EndSplineSet
EndChar

StartChar: S
Encoding: 83 83 50
Width: 910
VWidth: 910
Flags: HW
LayerCount: 2
Fore
SplineSet
417 824 m 0
 437 825 556 824 581 823 c 0
 656 818 705 807 743 788 c 0
 785 766 806 735 809 694 c 2
 809 684 l 1
 806 681 l 2
 798 673 781 669 759 669 c 0
 736 669 720 673 713 680 c 2
 708 684 l 1
 708 694 l 2
 706 722 694 744 673 759 c 0
 647 776 612 783 540 786 c 0
 501 788 428 788 411 786 c 0
 300 772 224 723 203 651 c 0
 198 636 198 626 198 608 c 0
 198 583 200 567 211 546 c 0
 224 521 241 501 269 483 c 0
 280 476 303 465 317 460 c 0
 358 444 407 434 463 429 c 0
 559 421 634 402 693 372 c 0
 702 367 714 362 720 358 c 0
 777 322 806 275 809 218 c 0
 811 167 793 123 754 87 c 0
 704 40 622 8 521 -2 c 0
 492 -6 472 -5 411 -5 c 0
 340 -4 312 -2 272 3 c 0
 176 16 121 46 106 98 c 0
 103 106 102 121 102 128 c 0
 102 134 102 134 106 139 c 0
 114 146 130 150 153 150 c 0
 175 150 191 146 198 139 c 2
 203 136 l 1
 203 126 l 2
 205 96 216 73 239 58 c 0
 271 38 318 32 431 32 c 0
 490 32 515 35 552 44 c 0
 618 62 669 98 692 144 c 0
 714 187 714 237 692 278 c 0
 672 317 631 347 571 368 c 0
 533 380 495 386 446 391 c 0
 403 395 364 401 332 408 c 0
 249 425 187 454 147 492 c 0
 131 507 119 523 110 542 c 0
 101 562 97 578 96 603 c 0
 95 650 112 692 147 728 c 0
 176 756 215 779 266 796 c 0
 311 811 361 820 417 824 c 0
EndSplineSet
EndChar

StartChar: T
Encoding: 84 84 51
Width: 859
VWidth: 910
Flags: HW
LayerCount: 2
Fore
SplineSet
110 818 m 0
 118 819 740 819 748 818 c 0
 774 814 789 805 780 795 c 0
 776 790 763 785 748 783 c 0
 743 782 689 782 611 782 c 2
 481 782 l 1
 481 399 l 1
 481 15 l 1
 478 13 l 2
 461 -4 397 -3 382 13 c 2
 380 16 l 1
 380 400 l 1
 380 782 l 1
 248 782 l 2
 170 782 116 782 111 783 c 0
 85 787 70 796 79 806 c 0
 83 811 96 816 110 818 c 0
EndSplineSet
EndChar

StartChar: U
Encoding: 85 85 52
Width: 910
VWidth: 910
Flags: HW
LayerCount: 2
Fore
SplineSet
135 818 m 0
 160 822 190 816 200 806 c 2
 203 804 l 1
 203 548 l 2
 203 382 203 287 204 281 c 0
 207 250 214 222 226 194 c 0
 251 135 299 85 357 57 c 0
 380 45 395 40 418 36 c 0
 445 30 466 30 494 36 c 0
 516 40 531 45 555 57 c 0
 641 100 699 185 707 281 c 0
 708 287 708 382 708 547 c 2
 708 803 l 1
 711 806 l 2
 726 822 789 823 806 806 c 2
 809 804 l 1
 809 547 l 2
 809 380 809 285 808 279 c 0
 799 175 736 85 638 36 c 0
 596 15 556 3 504 -3 c 0
 489 -5 482 -5 456 -5 c 0
 429 -5 422 -5 407 -3 c 0
 355 3 315 15 273 36 c 0
 187 79 126 156 108 245 c 0
 102 273 103 251 102 540 c 2
 102 803 l 1
 105 806 l 2
 110 811 120 815 135 818 c 0
EndSplineSet
EndChar

StartChar: V
Encoding: 86 86 53
Width: 961
VWidth: 910
Flags: HW
LayerCount: 2
Fore
SplineSet
110 818 m 0
 135 821 164 816 174 807 c 0
 176 804 191 763 313 421 c 2
 449 37 l 1
 481 37 l 1
 512 37 l 1
 648 421 l 2
 770 763 785 804 787 807 c 0
 792 812 801 815 816 818 c 0
 848 823 885 814 885 801 c 0
 885 799 821 622 745 407 c 0
 633 92 605 15 603 13 c 0
 598 8 589 4 574 1 c 0
 561 -1 400 -1 387 1 c 0
 372 4 363 8 358 13 c 0
 356 15 328 92 216 407 c 0
 140 622 76 799 76 801 c 0
 76 808 91 815 110 818 c 0
EndSplineSet
EndChar

StartChar: W
Encoding: 87 87 54
Width: 1365
VWidth: 910
Flags: HW
LayerCount: 2
Fore
SplineSet
110 818 m 0
 135 822 165 816 174 806 c 0
 177 804 191 755 287 423 c 0
 348 215 399 42 399 40 c 0
 400 37 400 37 405 37 c 2
 411 37 l 1
 522 345 l 2
 631 645 633 652 636 656 c 0
 641 660 646 661 656 664 c 0
 662 666 667 666 683 666 c 0
 699 666 703 666 709 664 c 0
 719 661 724 660 729 656 c 0
 732 652 735 645 844 345 c 2
 955 37 l 1
 960 37 l 2
 965 37 966 37 967 40 c 0
 967 42 1018 215 1079 423 c 0
 1175 755 1188 804 1191 806 c 0
 1196 811 1206 815 1221 818 c 0
 1252 823 1289 814 1289 801 c 0
 1289 798 1062 19 1060 15 c 0
 1057 10 1050 6 1037 3 c 0
 1030 1 1026 1 967 0 c 0
 901 0 893 0 880 4 c 0
 872 7 867 8 863 12 c 0
 861 15 849 44 772 260 c 0
 723 396 683 506 683 506 c 1
 683 506 642 396 593 260 c 0
 516 44 504 15 502 12 c 0
 498 8 493 7 485 4 c 0
 472 0 466 0 400 0 c 0
 340 1 336 1 329 3 c 0
 316 6 308 10 305 15 c 0
 303 19 76 798 76 801 c 0
 76 808 91 815 110 818 c 0
EndSplineSet
EndChar

StartChar: X
Encoding: 88 88 55
Width: 910
VWidth: 910
Flags: HW
LayerCount: 2
Fore
SplineSet
137 818 m 0
 162 822 191 816 199 806 c 0
 201 805 259 732 328 645 c 0
 398 558 454 487 455 487 c 0
 456 487 513 558 583 645 c 0
 652 732 709 805 711 806 c 0
 712 808 715 810 719 812 c 0
 743 824 795 820 806 806 c 0
 810 802 809 800 807 797 c 0
 806 795 739 710 657 607 c 0
 575 504 509 420 509 419 c 2
 509 419 578 330 664 223 c 0
 750 116 820 27 821 25 c 0
 826 19 823 12 814 7 c 0
 789 -5 739 -2 725 13 c 0
 724 15 663 92 590 184 c 0
 516 276 456 352 455 352 c 0
 454 352 394 276 320 184 c 0
 247 92 186 15 185 13 c 0
 171 -2 121 -5 96 7 c 0
 87 12 84 19 89 25 c 0
 90 27 161 116 247 223 c 0
 333 330 401 419 401 419 c 2
 401 420 336 503 255 605 c 0
 174 706 107 791 105 794 c 0
 101 799 101 802 105 806 c 0
 109 811 122 816 137 818 c 0
EndSplineSet
EndChar

StartChar: Y
Encoding: 89 89 56
Width: 910
VWidth: 910
Flags: HW
LayerCount: 2
Fore
SplineSet
137 818 m 0
 144 819 169 818 177 816 c 0
 185 814 192 813 196 810 c 0
 198 808 257 737 327 651 c 0
 397 565 454 494 455 494 c 2
 455 494 513 565 583 651 c 0
 653 737 712 808 714 809 c 0
 734 824 793 821 806 806 c 0
 810 802 809 801 808 797 c 0
 807 796 739 712 656 611 c 2
 506 427 l 1
 506 221 l 1
 506 15 l 1
 503 13 l 2
 486 -4 423 -3 408 13 c 2
 405 16 l 1
 405 221 l 1
 405 426 l 1
 262 601 l 2
 184 697 116 780 111 786 c 0
 104 795 102 798 102 800 c 0
 102 808 115 815 137 818 c 0
EndSplineSet
EndChar

StartChar: Z
Encoding: 90 90 57
Width: 859
VWidth: 910
Flags: HW
LayerCount: 2
Fore
SplineSet
110 818 m 0
 118 819 740 819 748 818 c 0
 769 815 783 808 783 801 c 0
 783 798 745 748 489 418 c 2
 194 38 l 1
 472 37 l 2
 726 36 751 36 756 35 c 0
 774 30 783 25 783 18 c 0
 783 11 769 4 748 1 c 0
 739 0 120 0 111 1 c 0
 90 4 76 11 76 18 c 0
 76 21 114 71 370 401 c 2
 665 782 l 1
 387 782 l 2
 133 783 108 783 103 784 c 0
 85 789 76 794 76 801 c 0
 76 808 90 815 110 818 c 0
EndSplineSet
EndChar

StartChar: bracketleft
Encoding: 91 91 58
Width: 404
VWidth: 910
Flags: HW
LayerCount: 2
Fore
SplineSet
84 869 m 0
 92 870 308 871 319 869 c 0
 346 865 359 855 350 846 c 0
 345 841 334 836 319 834 c 0
 315 833 278 833 232 833 c 2
 152 833 l 1
 152 410 l 1
 152 -14 l 1
 232 -14 l 2
 278 -14 315 -14 319 -15 c 0
 334 -17 345 -21 350 -26 c 0
 359 -35 346 -46 319 -50 c 0
 315 -51 267 -51 202 -51 c 0
 111 -51 91 -51 84 -50 c 0
 69 -47 59 -43 54 -38 c 2
 51 -35 l 1
 51 410 l 1
 51 854 l 1
 54 857 l 2
 59 862 69 866 84 869 c 0
EndSplineSet
EndChar

StartChar: backslash
Encoding: 92 92 59
Width: 708
VWidth: 910
Flags: HW
LayerCount: 2
Fore
SplineSet
85 818 m 0
 95 819 110 819 119 818 c 0
 134 815 144 811 149 806 c 0
 150 804 266 627 404 412 c 0
 596 115 657 20 657 18 c 0
 657 16 656 15 654 13 c 0
 637 -4 575 -3 559 13 c 0
 558 15 442 192 304 407 c 0
 112 704 51 799 51 801 c 0
 51 808 66 815 85 818 c 0
EndSplineSet
EndChar

StartChar: bracketright
Encoding: 93 93 60
Width: 404
VWidth: 910
Flags: HW
LayerCount: 2
Fore
SplineSet
85 869 m 0
 93 870 311 870 319 869 c 0
 334 867 345 862 350 857 c 2
 353 855 l 1
 353 410 l 1
 353 -35 l 1
 350 -38 l 2
 345 -43 334 -48 319 -50 c 0
 310 -51 95 -51 86 -50 c 0
 59 -46 45 -35 54 -26 c 0
 59 -21 71 -17 86 -15 c 0
 90 -14 126 -14 172 -14 c 2
 252 -14 l 1
 252 410 l 1
 252 833 l 1
 172 833 l 2
 126 833 90 833 86 834 c 0
 65 837 51 844 51 852 c 0
 51 859 66 866 85 869 c 0
EndSplineSet
EndChar

StartChar: asciicircum
Encoding: 94 94 61
Width: 506
VWidth: 910
Flags: HW
LayerCount: 2
Fore
SplineSet
238 818 m 0
 257 821 283 817 295 811 c 0
 298 809 448 678 452 673 c 0
 454 671 455 669 455 667 c 0
 455 662 446 656 431 652 c 0
 420 649 392 649 380 651 c 0
 364 655 367 653 308 705 c 0
 278 731 253 752 253 752 c 1
 253 752 228 731 198 705 c 0
 139 653 142 655 126 651 c 0
 114 649 87 649 76 652 c 0
 61 656 51 662 51 667 c 0
 51 669 52 671 54 673 c 0
 56 675 90 707 132 743 c 0
 188 793 208 809 213 812 c 0
 218 815 228 817 238 818 c 0
EndSplineSet
EndChar

StartChar: underscore
Encoding: 95 95 62
Width: 910
VWidth: 910
Flags: HW
LayerCount: 2
Fore
SplineSet
33 -1 m 0
 42 0 865 1 876 -1 c 0
 903 -5 916 -16 907 -25 c 0
 902 -30 891 -34 876 -36 c 0
 871 -37 714 -37 455 -37 c 0
 98 -37 40 -37 33 -36 c 0
 18 -33 8 -30 3 -25 c 0
 -1 -20 -1 -18 3 -13 c 0
 8 -8 18 -4 33 -1 c 0
EndSplineSet
EndChar

StartChar: a
Encoding: 97 97 63
Width: 859
VWidth: 910
Flags: HW
LayerCount: 2
Fore
SplineSet
400 619 m 0
 415 620 461 619 476 618 c 0
 542 611 603 592 650 563 c 2
 657 558 l 1
 657 578 l 1
 658 599 l 1
 661 602 l 2
 676 618 738 619 755 602 c 2
 758 599 l 1
 758 308 l 1
 758 15 l 1
 755 13 l 2
 738 -4 676 -3 661 13 c 2
 658 15 l 1
 657 36 l 1
 657 56 l 1
 650 52 l 2
 640 46 621 36 608 31 c 0
 556 8 501 -3 441 -5 c 0
 321 -8 221 37 157 123 c 0
 138 148 120 180 111 211 c 0
 101 241 96 276 96 308 c 0
 96 392 129 472 190 530 c 0
 245 583 316 613 400 619 c 0
449 582 m 0
 437 583 421 583 410 581 c 0
 365 576 317 549 280 512 c 0
 258 490 243 467 228 439 c 0
 212 406 203 376 198 340 c 0
 196 326 196 289 198 276 c 0
 203 239 212 209 228 177 c 0
 255 121 297 78 348 53 c 0
 383 36 414 29 449 33 c 0
 525 40 600 83 652 147 c 2
 657 155 l 1
 657 308 l 1
 657 460 l 1
 652 467 l 2
 600 531 525 575 449 582 c 0
EndSplineSet
EndChar

StartChar: b
Encoding: 98 98 64
Width: 859
VWidth: 910
Flags: HW
LayerCount: 2
Fore
SplineSet
135 818 m 0
 160 822 190 816 200 806 c 2
 203 804 l 1
 203 688 l 1
 203 573 l 2
 204 573 207 575 211 578 c 0
 257 608 313 628 372 635 c 0
 469 648 561 628 627 581 c 0
 649 566 674 541 689 522 c 0
 728 473 752 416 761 350 c 0
 764 330 764 288 762 270 c 0
 757 232 746 199 730 167 c 0
 683 73 594 13 484 -2 c 0
 425 -10 359 -4 300 13 c 0
 268 22 234 37 210 52 c 0
 206 54 204 56 203 56 c 2
 203 35 l 1
 203 15 l 1
 200 13 l 2
 183 -4 120 -3 105 13 c 2
 102 16 l 1
 102 410 l 1
 102 803 l 1
 105 806 l 2
 110 811 120 815 135 818 c 0
448 601 m 0
 409 606 359 594 315 569 c 0
 271 544 234 510 208 468 c 2
 203 461 l 1
 203 308 l 1
 203 154 l 1
 209 146 l 2
 263 81 336 40 411 33 c 0
 448 29 486 37 522 58 c 0
 568 83 605 124 630 171 c 0
 646 204 656 234 661 272 c 0
 663 290 663 329 660 349 c 0
 651 419 624 479 579 527 c 0
 544 566 493 595 448 601 c 0
EndSplineSet
EndChar

StartChar: c
Encoding: 99 99 65
Width: 859
VWidth: 910
Flags: HW
LayerCount: 2
Fore
SplineSet
405 613 m 0
 416 614 447 614 459 613 c 0
 466 612 479 612 487 611 c 0
 578 599 658 561 716 499 c 0
 735 479 757 449 757 444 c 0
 757 440 754 437 748 433 c 0
 729 422 685 423 666 433 c 0
 661 436 660 438 654 447 c 0
 619 499 570 537 515 559 c 0
 496 567 481 570 461 574 c 0
 446 577 416 577 404 575 c 0
 356 565 314 542 279 507 c 0
 235 463 207 408 198 342 c 0
 196 327 196 287 198 272 c 0
 207 206 235 151 279 107 c 0
 314 72 356 49 404 39 c 0
 416 37 446 37 461 40 c 0
 481 44 496 48 515 56 c 0
 570 78 619 115 654 167 c 0
 660 176 661 178 666 181 c 0
 685 191 729 192 748 181 c 0
 754 177 757 174 757 170 c 0
 757 165 735 136 716 116 c 0
 658 54 579 16 488 4 c 0
 339 -15 209 38 141 147 c 0
 111 195 96 251 96 308 c 0
 96 405 142 496 222 553 c 0
 272 588 335 608 405 613 c 0
EndSplineSet
EndChar

StartChar: d
Encoding: 100 100 66
Width: 859
VWidth: 910
Flags: HW
LayerCount: 2
Fore
SplineSet
690 818 m 0
 715 822 745 816 755 806 c 2
 758 804 l 1
 758 410 l 1
 758 15 l 1
 755 13 l 2
 738 -4 676 -3 661 13 c 2
 658 15 l 1
 657 36 l 1
 657 56 l 1
 650 52 l 2
 616 32 571 14 529 5 c 0
 415 -20 305 -1 226 55 c 0
 154 106 110 180 97 270 c 0
 95 288 95 330 98 350 c 0
 107 416 131 473 170 522 c 0
 180 534 204 559 216 568 c 0
 274 614 340 636 421 639 c 0
 504 641 585 619 649 578 c 2
 657 573 l 1
 657 688 l 1
 658 804 l 1
 661 806 l 2
 666 811 675 815 690 818 c 0
461 599 m 0
 447 602 423 602 411 601 c 0
 366 595 315 565 280 527 c 0
 235 479 208 419 199 349 c 0
 196 329 196 290 198 272 c 0
 203 234 213 204 229 171 c 0
 243 145 260 122 281 101 c 0
 318 64 366 39 411 34 c 0
 446 29 489 37 531 55 c 0
 577 75 620 108 652 147 c 2
 657 155 l 1
 657 308 l 1
 657 460 l 1
 653 467 l 2
 647 477 634 493 626 502 c 0
 581 553 523 588 461 599 c 0
EndSplineSet
EndChar

StartChar: e
Encoding: 101 101 67
Width: 834
VWidth: 910
Flags: HW
LayerCount: 2
Fore
SplineSet
389 619 m 0
 404 620 446 619 464 617 c 0
 481 615 501 612 516 608 c 0
 625 580 710 503 744 400 c 0
 753 372 758 338 758 312 c 0
 758 304 758 304 755 301 c 0
 750 296 739 291 724 289 c 0
 719 288 618 289 457 289 c 2
 198 289 l 1
 198 285 l 2
 198 280 200 261 203 248 c 0
 219 162 273 86 345 51 c 0
 377 36 403 30 437 33 c 0
 486 38 537 55 583 86 c 0
 610 104 631 124 655 152 c 0
 662 160 666 163 674 166 c 0
 700 175 745 170 755 157 c 0
 760 152 759 150 751 139 c 0
 692 69 601 18 502 2 c 0
 369 -20 259 9 183 87 c 0
 137 136 107 197 97 269 c 0
 95 284 95 327 97 342 c 0
 102 390 117 432 141 471 c 0
 194 558 280 610 389 619 c 0
434 582 m 0
 405 586 376 578 345 563 c 0
 274 528 220 455 203 369 c 0
 200 355 198 336 198 330 c 2
 198 326 l 1
 427 326 l 1
 656 326 l 1
 656 329 l 2
 656 331 655 337 654 343 c 0
 648 393 629 441 600 480 c 0
 576 511 546 537 513 555 c 0
 488 569 459 579 434 582 c 0
EndSplineSet
EndChar

StartChar: f
Encoding: 102 102 68
Width: 631
VWidth: 910
Flags: HW
LayerCount: 2
Fore
SplineSet
327 824 m 0
 332 824 343 825 352 825 c 0
 459 826 548 778 587 699 c 0
 599 676 606 646 606 622 c 0
 606 614 604 610 596 606 c 0
 584 601 576 600 556 600 c 0
 535 600 527 601 515 606 c 0
 508 610 505 614 505 620 c 0
 505 629 504 643 501 654 c 0
 490 707 454 751 405 775 c 0
 387 783 369 787 354 787 c 0
 339 787 321 783 304 775 c 0
 248 749 211 697 204 637 c 0
 203 628 203 610 203 537 c 2
 203 448 l 1
 359 448 l 2
 453 448 516 448 521 447 c 0
 547 443 562 433 553 423 c 0
 549 418 536 413 521 411 c 0
 516 410 453 411 359 411 c 2
 203 411 l 1
 203 224 l 1
 203 37 l 1
 212 36 l 2
 231 34 243 29 248 22 c 0
 249 18 249 17 245 13 c 0
 240 8 231 4 216 1 c 0
 203 -1 101 -1 88 1 c 0
 70 4 60 8 56 15 c 0
 55 19 55 21 59 25 c 0
 64 30 77 34 93 36 c 2
 102 37 l 1
 102 224 l 1
 102 411 l 1
 93 411 l 2
 78 413 65 416 60 421 c 0
 57 424 55 429 56 431 c 0
 58 439 72 445 93 447 c 2
 102 448 l 1
 102 538 l 2
 102 636 102 640 107 662 c 0
 118 706 145 744 183 773 c 0
 221 802 271 819 327 824 c 0
EndSplineSet
EndChar

StartChar: g
Encoding: 103 103 69
Width: 859
VWidth: 910
Flags: HW
LayerCount: 2
Fore
SplineSet
400 619 m 0
 415 620 461 619 476 618 c 0
 542 611 603 592 650 563 c 2
 657 558 l 1
 657 578 l 1
 658 599 l 1
 661 602 l 2
 676 618 738 619 755 602 c 2
 758 599 l 1
 758 215 l 1
 758 -168 l 1
 755 -177 l 2
 751 -190 747 -199 738 -207 c 0
 734 -212 729 -216 726 -218 c 0
 702 -232 668 -238 626 -237 c 0
 598 -236 577 -233 525 -223 c 0
 463 -212 453 -210 421 -209 c 0
 348 -207 288 -193 230 -164 c 0
 182 -139 138 -103 107 -63 c 0
 101 -55 100 -51 105 -46 c 0
 120 -32 167 -30 192 -42 c 0
 197 -45 197 -45 212 -62 c 0
 220 -73 240 -92 251 -101 c 0
 286 -131 328 -154 370 -165 c 0
 393 -170 405 -172 440 -173 c 0
 479 -174 498 -176 564 -188 c 0
 600 -195 627 -199 634 -199 c 0
 643 -199 649 -190 654 -174 c 0
 656 -168 656 -167 657 -56 c 2
 657 56 l 1
 655 56 l 2
 644 49 623 37 608 30 c 0
 556 8 501 -3 441 -5 c 0
 321 -8 221 37 157 123 c 0
 138 148 120 180 111 211 c 0
 101 241 96 276 96 308 c 0
 96 392 129 472 190 530 c 0
 245 583 316 613 400 619 c 0
449 582 m 0
 437 583 421 583 410 581 c 0
 365 576 317 549 280 512 c 0
 258 490 243 467 228 439 c 0
 212 406 203 376 198 340 c 0
 196 326 196 289 198 276 c 0
 203 239 212 209 228 177 c 0
 255 121 297 78 348 53 c 0
 383 36 414 29 449 33 c 0
 525 40 600 83 652 147 c 2
 657 155 l 1
 657 308 l 1
 657 460 l 1
 652 467 l 2
 600 531 525 575 449 582 c 0
EndSplineSet
EndChar

StartChar: h
Encoding: 104 104 70
Width: 859
VWidth: 910
Flags: HW
LayerCount: 2
Fore
SplineSet
135 818 m 0
 160 822 190 816 200 806 c 2
 203 804 l 1
 203 673 l 1
 204 542 l 1
 213 550 l 2
 261 588 319 610 387 617 c 0
 416 621 454 621 485 616 c 0
 564 605 634 573 683 521 c 0
 723 480 746 431 755 374 c 2
 757 362 l 1
 758 188 l 1
 758 15 l 1
 755 13 l 2
 738 -4 676 -3 661 13 c 2
 658 15 l 1
 657 188 l 2
 656 360 656 360 654 372 c 0
 646 423 627 464 593 502 c 0
 555 545 498 577 446 582 c 0
 401 587 348 568 303 533 c 0
 248 489 214 427 205 357 c 0
 203 347 203 324 203 180 c 2
 203 15 l 1
 200 13 l 2
 183 -4 120 -3 105 13 c 2
 102 16 l 1
 102 410 l 1
 102 803 l 1
 105 806 l 2
 110 811 120 815 135 818 c 0
EndSplineSet
EndChar

StartChar: i
Encoding: 105 105 71
Width: 455
VWidth: 910
Flags: HW
LayerCount: 2
Fore
SplineSet
211 735 m 0
 215 735 223 735 231 735 c 0
 243 734 247 735 255 733 c 0
 266 729 272 727 276 722 c 0
 280 718 280 716 276 712 c 0
 272 707 266 705 255 701 c 0
 246 699 244 699 228 699 c 0
 212 699 209 699 201 701 c 0
 196 703 190 704 187 706 c 0
 182 709 177 713 177 716 c 0
 177 720 180 723 185 726 c 0
 190 729 203 734 211 735 c 0
164 613 m 0
 175 614 279 614 291 613 c 0
 309 610 319 606 323 599 c 0
 324 595 324 594 320 590 c 0
 315 585 304 580 288 578 c 2
 279 577 l 1
 279 308 l 1
 279 37 l 1
 288 36 l 2
 303 34 314 31 319 26 c 0
 322 23 324 19 323 17 c 0
 322 12 315 8 305 5 c 0
 292 0 285 0 228 0 c 0
 171 0 163 0 150 5 c 0
 136 9 129 16 132 22 c 0
 137 29 148 34 168 36 c 2
 177 37 l 1
 177 308 l 1
 177 577 l 1
 168 578 l 2
 153 580 141 583 136 588 c 0
 133 591 131 595 132 597 c 0
 134 604 146 609 164 613 c 0
EndSplineSet
EndChar

StartChar: j
Encoding: 106 106 72
Width: 607
VWidth: 910
Flags: HW
LayerCount: 2
Fore
SplineSet
439 735 m 0
 443 735 451 735 459 735 c 0
 471 734 474 735 482 733 c 0
 493 729 499 727 503 722 c 0
 507 718 507 716 503 712 c 0
 499 707 493 705 482 701 c 0
 473 699 471 699 455 699 c 0
 439 699 437 699 429 701 c 0
 424 703 417 704 414 706 c 0
 409 709 404 713 404 716 c 0
 404 720 407 723 412 726 c 0
 417 729 431 734 439 735 c 0
391 613 m 0
 402 614 507 614 519 613 c 0
 537 610 547 606 551 599 c 0
 552 595 552 594 548 590 c 0
 543 585 531 580 515 578 c 2
 506 577 l 1
 506 277 l 2
 505 -6 505 -24 504 -32 c 0
 499 -61 490 -84 475 -106 c 0
 455 -137 425 -163 390 -180 c 0
 310 -220 197 -220 117 -180 c 0
 48 -145 4 -83 0 -12 c 1
 0 0 l 1
 3 4 l 2
 9 10 21 13 40 15 c 0
 64 18 90 13 97 4 c 0
 101 0 101 0 101 -5 c 0
 101 -20 105 -41 110 -56 c 0
 128 -111 173 -155 228 -169 c 0
 237 -172 240 -172 253 -172 c 0
 266 -172 269 -172 278 -169 c 0
 324 -157 365 -124 386 -80 c 0
 395 -64 399 -49 403 -30 c 0
 404 -22 404 -4 405 278 c 2
 405 577 l 1
 396 578 l 2
 381 580 368 583 363 588 c 0
 360 591 359 595 360 597 c 0
 362 604 373 609 391 613 c 0
EndSplineSet
EndChar

StartChar: k
Encoding: 107 107 73
Width: 809
VWidth: 910
Flags: HW
LayerCount: 2
Fore
SplineSet
135 818 m 0
 160 822 190 816 200 806 c 2
 203 804 l 1
 203 585 l 1
 204 366 l 1
 436 487 l 2
 563 553 670 608 673 609 c 0
 680 612 691 613 703 614 c 0
 739 615 768 603 755 590 c 0
 752 588 674 545 502 456 c 2
 251 327 l 1
 260 326 l 2
 271 325 283 323 289 320 c 0
 295 317 750 30 755 25 c 0
 759 21 759 17 755 13 c 0
 740 -2 688 -5 665 9 c 0
 657 14 212 296 208 299 c 0
 206 301 204 302 204 301 c 1
 203 301 203 236 203 158 c 2
 203 15 l 1
 200 13 l 2
 183 -4 120 -3 105 13 c 2
 102 16 l 1
 102 410 l 1
 102 803 l 1
 105 806 l 2
 110 811 120 815 135 818 c 0
EndSplineSet
EndChar

StartChar: l
Encoding: 108 108 74
Width: 455
VWidth: 910
Flags: HW
LayerCount: 2
Fore
SplineSet
164 818 m 0
 172 819 234 819 244 818 c 0
 259 816 271 811 276 806 c 2
 279 804 l 1
 279 421 l 1
 279 37 l 1
 288 36 l 2
 307 34 318 29 323 22 c 0
 324 18 324 17 320 13 c 0
 315 8 306 4 291 1 c 0
 278 -1 177 -1 164 1 c 0
 146 4 136 8 132 15 c 0
 131 19 131 21 135 25 c 0
 140 30 152 34 168 36 c 2
 177 37 l 1
 177 410 l 1
 177 782 l 1
 168 783 l 2
 153 785 141 788 136 793 c 0
 133 796 131 800 132 802 c 0
 134 809 146 814 164 818 c 0
EndSplineSet
EndChar

StartChar: m
Encoding: 109 109 75
Width: 1213
VWidth: 910
Flags: HW
LayerCount: 2
Fore
SplineSet
351 619 m 0
 365 620 392 620 406 619 c 0
 486 613 550 584 597 536 c 1
 606 525 l 1
 616 536 l 2
 630 550 642 560 658 571 c 0
 696 596 740 612 794 618 c 0
 804 619 814 619 835 619 c 0
 863 619 875 618 898 614 c 0
 1004 595 1083 529 1106 440 c 0
 1112 414 1111 431 1112 212 c 2
 1112 15 l 1
 1110 13 l 2
 1093 -4 1030 -3 1015 13 c 2
 1012 15 l 1
 1011 211 l 2
 1010 428 1011 411 1005 436 c 0
 995 475 972 513 941 538 c 0
 917 558 889 573 860 580 c 0
 851 582 849 582 835 582 c 0
 820 582 817 582 808 580 c 0
 764 570 724 542 697 506 c 0
 675 477 662 442 658 406 c 0
 657 400 657 333 657 206 c 2
 657 15 l 1
 654 13 l 2
 637 -4 575 -3 560 13 c 2
 557 15 l 1
 556 211 l 2
 555 428 556 411 550 436 c 0
 540 476 516 514 485 539 c 0
 450 568 408 585 374 583 c 0
 334 580 287 554 255 517 c 0
 232 491 215 454 208 422 c 0
 203 399 203 409 203 205 c 2
 203 15 l 1
 200 13 l 2
 183 -4 120 -3 105 13 c 2
 102 16 l 1
 102 307 l 1
 102 598 l 1
 105 602 l 2
 120 618 183 619 200 602 c 2
 203 599 l 1
 203 583 l 1
 203 568 l 1
 211 573 l 2
 250 598 298 614 351 619 c 0
EndSplineSet
EndChar

StartChar: n
Encoding: 110 110 76
Width: 859
VWidth: 910
Flags: HW
LayerCount: 2
Fore
SplineSet
406 619 m 0
 428 621 460 620 485 616 c 0
 564 606 634 573 683 521 c 0
 723 480 746 431 755 374 c 2
 757 362 l 1
 758 188 l 1
 758 15 l 1
 755 13 l 2
 738 -4 676 -3 661 13 c 2
 658 15 l 1
 657 188 l 2
 656 360 656 360 654 372 c 0
 646 423 627 464 593 502 c 0
 555 545 498 577 446 582 c 0
 401 587 348 568 303 533 c 0
 248 489 214 427 205 357 c 0
 203 347 203 324 203 180 c 2
 203 15 l 1
 200 13 l 2
 183 -4 120 -3 105 13 c 2
 102 16 l 1
 102 307 l 1
 102 598 l 1
 105 602 l 2
 120 618 183 619 200 602 c 2
 203 599 l 1
 203 571 l 1
 204 542 l 1
 213 550 l 2
 266 591 330 614 406 619 c 0
EndSplineSet
EndChar

StartChar: o
Encoding: 111 111 77
Width: 961
VWidth: 910
Flags: HW
LayerCount: 2
Fore
SplineSet
445 619 m 0
 461 620 497 620 514 619 c 0
 620 613 712 579 782 523 c 0
 795 512 820 488 830 475 c 0
 845 457 859 432 868 413 c 0
 873 400 881 377 884 364 c 0
 889 341 889 333 889 308 c 0
 889 290 889 281 888 273 c 0
 880 222 862 179 830 139 c 0
 820 126 795 102 782 91 c 0
 717 40 637 8 542 -2 c 0
 439 -14 331 4 248 46 c 0
 210 65 181 87 154 115 c 0
 138 131 128 143 116 160 c 0
 93 195 79 229 73 273 c 0
 71 288 71 327 73 342 c 0
 81 392 99 435 131 475 c 0
 141 488 166 512 180 523 c 0
 249 579 341 612 445 619 c 0
518 581 m 0
 507 582 468 583 461 582 c 0
 442 580 436 580 425 577 c 0
 357 565 294 533 248 487 c 0
 206 444 182 396 174 337 c 0
 172 326 172 289 174 278 c 0
 179 237 192 202 213 170 c 0
 262 96 347 47 444 34 c 0
 460 32 501 32 518 34 c 0
 594 44 663 77 714 127 c 0
 756 170 779 219 787 278 c 0
 788 283 788 295 788 308 c 0
 788 320 788 332 787 337 c 0
 779 396 756 444 714 487 c 0
 663 537 593 571 518 581 c 0
EndSplineSet
EndChar

StartChar: p
Encoding: 112 112 78
Width: 834
VWidth: 910
Flags: HW
LayerCount: 2
Fore
SplineSet
386 619 m 0
 404 620 446 619 465 617 c 0
 549 607 620 574 674 518 c 0
 729 461 758 386 758 308 c 0
 758 229 729 153 674 96 c 0
 612 31 527 -2 427 -5 c 0
 349 -7 267 13 210 48 c 0
 206 50 204 52 203 52 c 2
 203 -68 l 1
 203 -189 l 1
 200 -192 l 2
 183 -209 120 -208 105 -192 c 2
 102 -188 l 1
 102 205 l 1
 102 598 l 1
 105 602 l 2
 120 618 183 619 200 602 c 2
 203 599 l 1
 203 581 l 1
 203 563 l 2
 204 563 206 564 210 566 c 0
 234 581 269 596 302 604 c 0
 326 611 359 617 386 619 c 0
434 582 m 0
 408 585 377 581 346 570 c 0
 293 552 245 517 210 471 c 2
 203 461 l 1
 203 308 l 1
 203 153 l 1
 210 144 l 2
 245 98 293 63 346 45 c 0
 384 32 418 28 451 35 c 0
 522 50 589 105 625 176 c 0
 640 207 650 236 655 272 c 0
 657 287 657 327 655 342 c 0
 646 404 623 456 583 501 c 0
 543 545 486 577 434 582 c 0
EndSplineSet
EndChar

StartChar: q
Encoding: 113 113 79
Width: 834
VWidth: 910
Flags: HW
LayerCount: 2
Fore
SplineSet
392 619 m 0
 405 620 434 620 447 619 c 0
 513 614 577 595 625 566 c 2
 633 562 l 1
 633 580 l 1
 634 599 l 1
 636 602 l 2
 651 618 714 619 731 602 c 2
 734 599 l 1
 734 205 l 1
 734 -189 l 1
 731 -192 l 2
 714 -209 651 -208 636 -192 c 2
 634 -189 l 1
 633 -68 l 1
 633 53 l 1
 625 48 l 2
 566 13 486 -7 408 -5 c 0
 308 -2 223 31 161 96 c 0
 106 153 76 229 76 308 c 0
 76 386 106 461 161 518 c 0
 215 574 286 608 370 617 c 0
 379 618 389 619 392 619 c 0
449 580 m 0
 437 582 411 583 400 582 c 0
 377 579 352 571 329 559 c 0
 279 534 235 491 209 439 c 0
 194 408 184 378 179 342 c 0
 177 327 177 287 179 272 c 0
 184 236 194 207 209 176 c 0
 245 105 312 50 383 35 c 0
 462 18 564 65 625 145 c 2
 633 155 l 1
 633 308 l 1
 633 460 l 1
 625 470 l 2
 580 528 517 568 449 580 c 0
EndSplineSet
EndChar

StartChar: r
Encoding: 114 114 80
Width: 758
VWidth: 910
Flags: HW
LayerCount: 2
Fore
SplineSet
376 619 m 0
 391 620 433 619 448 617 c 0
 472 614 492 610 513 604 c 0
 627 569 702 479 707 373 c 1
 707 360 l 1
 705 356 l 2
 699 350 686 346 668 344 c 0
 643 341 617 347 610 356 c 2
 606 360 l 1
 606 371 l 2
 603 428 581 481 541 521 c 0
 522 538 505 551 482 563 c 0
 449 579 417 586 387 582 c 0
 367 579 348 573 328 563 c 0
 305 551 288 538 269 521 c 0
 235 486 214 445 205 394 c 0
 204 385 204 372 203 211 c 2
 203 37 l 1
 212 36 l 2
 231 34 243 29 248 22 c 0
 249 18 249 17 245 13 c 0
 240 8 231 4 216 1 c 0
 203 -1 101 -1 88 1 c 0
 70 4 60 8 56 15 c 0
 55 19 55 21 59 25 c 0
 64 30 77 34 93 36 c 2
 102 37 l 1
 102 318 l 1
 102 598 l 1
 105 602 l 2
 120 618 183 619 200 602 c 2
 203 599 l 1
 203 579 l 1
 203 559 l 2
 204 559 206 560 210 563 c 0
 231 578 263 594 289 603 c 0
 315 611 344 616 376 619 c 0
EndSplineSet
EndChar

StartChar: s
Encoding: 115 115 81
Width: 859
VWidth: 910
Flags: HW
LayerCount: 2
Fore
SplineSet
383 619 m 0
 405 620 503 619 528 618 c 0
 629 611 693 592 728 557 c 0
 747 539 756 518 758 492 c 0
 758 482 758 482 756 479 c 0
 752 474 745 471 734 468 c 0
 728 466 723 466 708 466 c 0
 687 466 679 467 667 472 c 0
 659 477 657 479 657 491 c 0
 655 513 648 529 634 544 c 0
 619 559 596 569 564 574 c 0
 533 580 506 582 442 582 c 0
 387 582 372 581 341 576 c 0
 263 564 217 535 202 488 c 0
 198 476 198 469 198 454 c 0
 198 432 200 420 208 403 c 0
 227 366 269 340 330 330 c 0
 355 325 363 325 400 326 c 0
 458 327 498 326 513 325 c 0
 556 321 594 315 626 304 c 0
 702 279 745 241 756 185 c 0
 758 174 758 147 756 136 c 0
 748 101 730 74 695 51 c 0
 684 44 659 31 644 26 c 0
 606 11 555 1 494 -4 c 0
 469 -6 371 -6 341 -4 c 0
 285 0 246 6 213 15 c 0
 141 36 106 71 102 123 c 0
 102 133 102 133 104 136 c 0
 108 141 116 144 127 147 c 0
 133 149 137 148 153 148 c 0
 173 148 181 147 193 142 c 0
 201 137 203 136 203 125 c 0
 205 102 212 85 226 70 c 0
 246 51 278 40 330 35 c 0
 368 31 450 31 484 34 c 0
 570 42 624 67 646 112 c 0
 654 129 658 147 657 167 c 0
 655 191 648 210 634 228 c 0
 619 248 595 264 563 275 c 0
 529 286 495 291 449 289 c 0
 413 288 360 287 344 289 c 0
 306 292 266 299 238 308 c 0
 157 331 110 371 98 427 c 0
 95 440 95 467 97 479 c 0
 102 503 113 522 128 539 c 0
 173 585 257 612 383 619 c 0
EndSplineSet
EndChar

StartChar: t
Encoding: 116 116 82
Width: 607
VWidth: 910
Flags: HW
LayerCount: 2
Fore
SplineSet
286 818 m 0
 311 822 341 816 351 806 c 2
 354 804 l 1
 354 709 l 1
 354 614 l 1
 434 614 l 2
 480 614 518 614 522 613 c 0
 549 609 562 599 553 590 c 0
 548 585 537 580 522 578 c 0
 518 577 480 577 434 577 c 2
 354 577 l 1
 354 308 l 1
 354 37 l 1
 363 36 l 2
 379 34 391 31 397 25 c 0
 406 16 392 5 365 1 c 0
 356 0 251 0 242 1 c 0
 215 5 201 16 210 25 c 0
 216 31 228 34 244 36 c 2
 253 37 l 1
 253 308 l 1
 253 577 l 1
 173 577 l 2
 127 577 90 577 86 578 c 0
 71 580 59 585 54 590 c 0
 45 599 59 609 86 613 c 0
 90 614 127 614 173 614 c 2
 253 614 l 1
 253 708 l 1
 253 803 l 1
 256 806 l 2
 261 811 271 815 286 818 c 0
EndSplineSet
EndChar

StartChar: u
Encoding: 117 117 83
Width: 859
VWidth: 910
Flags: HW
LayerCount: 2
Fore
SplineSet
135 613 m 0
 160 617 190 612 200 602 c 2
 203 599 l 1
 203 427 l 1
 204 255 l 1
 206 242 l 2
 211 208 222 178 238 151 c 0
 263 109 299 77 344 54 c 0
 379 37 414 29 447 33 c 0
 499 38 556 69 593 112 c 0
 627 150 646 192 654 242 c 0
 656 254 656 255 657 427 c 2
 658 599 l 1
 661 602 l 2
 676 618 738 619 755 602 c 2
 758 599 l 1
 758 308 l 1
 758 15 l 1
 755 13 l 2
 738 -4 676 -3 661 13 c 2
 658 15 l 1
 657 43 l 1
 657 69 l 1
 646 61 l 2
 640 56 630 50 625 47 c 0
 612 38 582 23 567 18 c 0
 481 -14 379 -14 293 18 c 0
 271 26 246 40 226 53 c 0
 196 73 166 102 147 131 c 0
 124 165 111 198 105 240 c 2
 103 253 l 1
 102 425 l 1
 102 598 l 1
 105 601 l 2
 110 607 120 610 135 613 c 0
EndSplineSet
EndChar

StartChar: v
Encoding: 118 118 84
Width: 809
VWidth: 910
Flags: HW
LayerCount: 2
Fore
SplineSet
110 613 m 0
 135 617 166 612 174 602 c 0
 176 600 207 524 287 319 c 2
 398 38 l 1
 405 38 l 1
 411 38 l 1
 522 319 l 2
 602 524 633 600 635 602 c 0
 640 607 649 610 664 613 c 0
 696 618 733 609 733 596 c 0
 733 593 506 18 503 14 c 0
 499 9 492 5 479 2 c 0
 472 1 465 1 405 1 c 0
 344 1 337 1 330 2 c 0
 317 5 310 9 306 14 c 0
 303 18 76 593 76 596 c 0
 76 603 91 610 110 613 c 0
EndSplineSet
EndChar

StartChar: w
Encoding: 119 119 85
Width: 1264
VWidth: 910
Flags: HW
LayerCount: 2
Fore
SplineSet
110 613 m 0
 135 617 165 612 174 602 c 0
 176 600 197 542 273 324 c 0
 326 172 370 46 371 43 c 2
 373 37 l 1
 380 37 l 1
 386 37 l 1
 484 318 l 2
 563 546 582 599 584 602 c 0
 592 610 614 615 638 614 c 0
 661 613 678 607 682 599 c 0
 683 597 727 470 781 317 c 2
 878 37 l 1
 885 37 l 1
 891 37 l 1
 893 43 l 2
 894 46 938 172 991 324 c 0
 1067 542 1088 600 1090 602 c 0
 1095 607 1105 610 1120 613 c 0
 1151 618 1188 609 1188 596 c 0
 1188 592 986 17 983 13 c 0
 979 8 966 3 951 1 c 0
 947 0 918 0 885 0 c 0
 838 0 823 0 816 1 c 0
 801 4 792 8 787 13 c 0
 784 15 771 54 709 231 c 0
 667 349 634 447 633 448 c 0
 633 450 611 388 556 233 c 0
 495 58 480 16 478 13 c 0
 473 8 463 4 448 1 c 0
 441 0 427 0 380 0 c 0
 347 0 317 0 313 1 c 0
 298 3 285 8 281 13 c 0
 278 17 76 592 76 596 c 0
 76 603 91 610 110 613 c 0
EndSplineSet
EndChar

StartChar: x
Encoding: 120 120 86
Width: 809
VWidth: 910
Flags: HW
LayerCount: 2
Fore
SplineSet
124 613 m 0
 129 613 136 614 146 614 c 0
 162 613 172 612 181 607 c 0
 186 604 193 598 291 493 c 0
 348 432 397 380 400 377 c 2
 405 372 l 1
 513 488 l 2
 616 598 623 604 628 607 c 0
 648 617 689 616 708 607 c 0
 718 602 720 595 715 589 c 0
 713 587 656 527 590 456 c 0
 523 384 465 323 462 320 c 2
 458 315 l 1
 585 179 l 2
 654 105 717 39 723 33 c 0
 732 24 733 22 733 19 c 0
 733 1 670 -7 642 8 c 0
 638 10 615 35 522 134 c 0
 457 202 405 258 405 258 c 2
 404 258 353 202 288 134 c 0
 165 3 170 8 158 5 c 0
 125 -5 76 3 76 19 c 0
 76 22 77 24 86 33 c 0
 92 39 155 105 224 179 c 2
 351 315 l 1
 347 320 l 2
 344 323 286 384 219 456 c 0
 153 527 97 587 95 589 c 0
 86 599 98 608 124 613 c 0
EndSplineSet
EndChar

StartChar: y
Encoding: 121 121 87
Width: 809
VWidth: 910
Flags: HW
LayerCount: 2
Fore
SplineSet
110 613 m 0
 135 617 166 612 174 602 c 0
 176 601 227 493 290 362 c 2
 404 126 l 1
 407 129 l 2
 408 132 459 239 521 367 c 0
 583 495 633 601 635 602 c 0
 640 607 649 610 664 613 c 0
 696 618 733 609 733 596 c 0
 733 592 357 -188 353 -192 c 0
 346 -200 323 -206 300 -205 c 0
 274 -203 256 -196 256 -187 c 0
 256 -185 273 -148 305 -83 c 2
 353 18 l 1
 215 306 l 2
 128 488 76 594 76 596 c 0
 76 603 91 610 110 613 c 0
EndSplineSet
EndChar

StartChar: z
Encoding: 122 122 88
Width: 809
VWidth: 910
Flags: HW
LayerCount: 2
Fore
SplineSet
110 613 m 0
 118 614 690 614 698 613 c 0
 719 610 733 603 733 595 c 0
 733 592 730 590 715 574 c 0
 706 564 586 440 449 298 c 2
 198 38 l 1
 450 37 l 2
 678 36 701 36 706 35 c 0
 724 30 733 25 733 18 c 0
 733 11 719 4 698 1 c 0
 689 0 120 0 111 1 c 0
 90 4 76 11 76 19 c 0
 76 22 79 24 94 40 c 0
 103 50 223 175 360 318 c 2
 611 577 l 1
 360 577 l 2
 132 578 108 578 103 579 c 0
 85 584 76 589 76 596 c 0
 76 603 90 610 110 613 c 0
EndSplineSet
EndChar

StartChar: braceleft
Encoding: 123 123 89
Width: 404
VWidth: 910
Flags: HW
LayerCount: 2
Fore
SplineSet
282 869 m 0
 292 870 313 870 319 869 c 0
 344 865 357 856 351 847 c 0
 348 842 338 838 325 835 c 0
 322 834 315 834 309 833 c 0
 298 832 296 832 290 829 c 0
 278 824 267 809 260 792 c 0
 247 760 245 718 250 632 c 0
 255 543 251 498 238 465 c 0
 229 442 212 422 194 412 c 2
 189 411 l 1
 196 407 l 2
 215 395 229 378 238 356 c 0
 251 322 255 277 250 188 c 0
 245 99 248 57 261 25 c 0
 268 10 279 -5 290 -10 c 0
 296 -13 298 -13 309 -14 c 0
 326 -15 338 -18 346 -23 c 0
 354 -28 355 -33 350 -38 c 0
 341 -47 321 -52 293 -51 c 0
 235 -49 193 -31 172 0 c 0
 148 35 143 80 148 190 c 0
 153 278 150 321 137 353 c 0
 130 368 119 383 108 388 c 0
 102 391 101 390 90 391 c 0
 73 392 61 395 53 400 c 0
 43 406 43 414 53 420 c 0
 61 425 73 428 90 429 c 0
 101 430 102 429 108 432 c 0
 120 437 131 453 138 470 c 0
 151 502 153 544 148 630 c 0
 145 687 145 729 150 755 c 0
 158 818 189 851 246 864 c 0
 256 867 273 869 282 869 c 0
EndSplineSet
EndChar

StartChar: bar
Encoding: 124 124 90
Width: 506
VWidth: 910
Flags: HW
LayerCount: 2
Fore
SplineSet
236 818 m 0
 261 822 291 816 301 806 c 2
 304 804 l 1
 304 410 l 1
 304 15 l 1
 301 13 l 2
 284 -4 221 -3 206 13 c 2
 203 16 l 1
 203 410 l 1
 203 803 l 1
 206 806 l 2
 211 811 221 815 236 818 c 0
EndSplineSet
EndChar

StartChar: braceright
Encoding: 125 125 91
Width: 404
VWidth: 910
Flags: HW
LayerCount: 2
Fore
SplineSet
74 869 m 0
 82 870 102 870 114 869 c 0
 146 866 173 859 193 847 c 0
 202 842 217 826 222 818 c 0
 234 800 241 780 246 753 c 0
 250 728 250 723 249 642 c 0
 249 549 251 528 256 501 c 0
 265 458 286 429 311 429 c 0
 329 429 349 423 356 416 c 0
 364 408 354 398 330 393 c 0
 327 392 320 392 314 391 c 0
 304 391 302 391 298 389 c 0
 274 377 258 345 253 299 c 0
 250 277 249 256 249 178 c 0
 249 107 249 99 248 86 c 0
 242 36 232 8 209 -14 c 0
 191 -31 169 -42 136 -47 c 0
 93 -54 56 -51 43 -38 c 0
 35 -30 44 -20 68 -15 c 0
 71 -14 79 -15 85 -14 c 0
 95 -14 97 -13 101 -11 c 0
 125 1 141 32 146 78 c 0
 149 100 149 121 149 200 c 0
 149 270 149 279 150 292 c 0
 156 342 166 369 189 391 c 0
 194 396 202 402 207 405 c 2
 215 410 l 1
 207 415 l 2
 197 420 182 435 177 443 c 0
 165 461 158 482 153 509 c 0
 149 534 148 539 149 620 c 0
 149 713 148 734 143 761 c 0
 134 804 112 833 87 833 c 0
 62 833 40 842 40 852 c 0
 40 859 55 866 74 869 c 0
EndSplineSet
EndChar

StartChar: asciitilde
Encoding: 126 126 92
Width: 1011
VWidth: 910
Flags: HW
LayerCount: 2
Fore
SplineSet
259 478 m 0
 268 479 307 478 318 477 c 0
 374 470 416 450 461 414 c 0
 473 403 501 375 515 360 c 0
 520 353 539 332 554 312 c 0
 584 275 593 265 609 248 c 0
 646 208 689 179 722 174 c 0
 736 171 751 175 770 184 c 0
 815 206 846 247 857 299 c 0
 859 308 860 311 863 313 c 0
 878 329 941 329 958 313 c 0
 962 309 962 309 958 294 c 0
 946 238 909 191 856 164 c 0
 831 150 802 142 769 137 c 0
 752 135 710 135 694 137 c 0
 637 145 595 164 550 200 c 0
 538 211 510 239 496 255 c 0
 491 261 472 282 457 302 c 0
 427 339 418 350 402 367 c 0
 365 407 322 436 289 441 c 0
 275 444 260 440 241 431 c 0
 196 409 165 367 154 315 c 0
 152 306 151 303 148 301 c 0
 133 285 71 285 54 301 c 0
 50 305 50 305 54 320 c 0
 62 357 81 391 108 417 c 0
 145 453 195 473 259 478 c 0
EndSplineSet
EndChar

StartChar: Adieresis
Encoding: 196 196 93
Width: 961
VWidth: 910
Flags: HW
LayerCount: 2
Fore
SplineSet
379 913 m 0
 413 918 449 911 458 898 c 0
 462 893 462 892 458 887 c 0
 446 872 394 865 361 876 c 0
 347 881 340 887 340 893 c 0
 340 896 344 901 349 904 c 0
 354 908 368 912 379 913 c 0
540 913 m 0
 574 918 610 911 619 898 c 0
 623 893 623 892 619 887 c 0
 607 872 555 865 522 876 c 0
 508 881 501 887 501 893 c 0
 501 896 505 901 510 904 c 0
 515 908 529 912 540 913 c 0
387 818 m 0
 398 820 562 820 574 818 c 0
 589 815 598 811 603 806 c 0
 605 804 633 727 745 412 c 0
 821 197 885 20 885 18 c 0
 885 5 848 -4 816 1 c 0
 801 4 792 8 787 13 c 0
 785 15 770 56 718 203 c 2
 651 391 l 1
 481 391 l 1
 310 391 l 1
 243 203 l 2
 191 56 176 15 174 13 c 0
 169 8 160 4 145 1 c 0
 113 -4 76 5 76 18 c 0
 76 20 140 197 216 412 c 0
 328 727 356 804 358 806 c 0
 363 811 372 815 387 818 c 0
574 606 m 2
 512 782 l 1
 481 782 l 1
 449 782 l 1
 387 606 l 2
 352 509 324 430 324 430 c 2
 324 429 395 429 481 429 c 0
 567 429 637 429 637 430 c 2
 637 430 609 509 574 606 c 2
EndSplineSet
EndChar

StartChar: Odieresis
Encoding: 214 214 94
Width: 1163
VWidth: 910
Flags: HW
LayerCount: 2
Fore
SplineSet
480 913 m 0
 514 918 550 911 559 898 c 0
 563 893 563 892 559 887 c 0
 547 872 495 865 462 876 c 0
 448 881 441 887 441 893 c 0
 441 896 445 901 450 904 c 0
 455 908 469 912 480 913 c 0
641 913 m 0
 675 918 711 911 720 898 c 0
 724 893 724 892 720 887 c 0
 708 872 657 865 624 876 c 0
 610 881 602 887 602 893 c 0
 602 896 606 901 611 904 c 0
 616 908 630 912 641 913 c 0
543 824 m 0
 573 826 613 825 647 821 c 0
 777 808 894 758 976 679 c 0
 1034 622 1072 552 1086 476 c 0
 1091 451 1091 440 1091 410 c 0
 1091 374 1088 351 1080 319 c 0
 1055 220 988 134 890 75 c 0
 865 60 843 49 814 37 c 0
 652 -28 448 -18 299 61 c 0
 179 124 98 226 77 343 c 0
 72 368 72 380 72 410 c 0
 72 446 75 469 83 502 c 0
 99 568 136 628 188 679 c 0
 276 764 400 815 543 824 c 0
624 786 m 0
 612 787 569 787 560 786 c 0
 558 786 550 787 544 786 c 0
 511 783 475 775 441 763 c 0
 364 736 295 687 248 627 c 0
 207 574 182 516 174 449 c 0
 172 431 172 388 174 370 c 0
 182 303 207 245 248 192 c 0
 311 111 412 53 519 37 c 0
 543 32 555 33 582 33 c 0
 609 33 620 32 645 37 c 0
 751 53 853 111 916 192 c 0
 957 245 981 303 989 370 c 0
 991 388 991 431 989 449 c 0
 981 516 957 574 916 627 c 0
 849 713 741 773 624 786 c 0
EndSplineSet
EndChar

StartChar: Udieresis
Encoding: 220 220 95
Width: 910
VWidth: 910
Flags: HW
LayerCount: 2
Fore
SplineSet
353 913 m 0
 387 918 423 911 432 898 c 0
 436 893 436 892 432 887 c 0
 420 872 369 865 336 876 c 0
 322 881 314 887 314 893 c 0
 314 896 318 901 323 904 c 0
 328 908 342 912 353 913 c 0
514 913 m 0
 548 918 584 911 593 898 c 0
 597 893 597 892 593 887 c 0
 581 872 530 865 497 876 c 0
 483 881 475 887 475 893 c 0
 475 896 479 901 484 904 c 0
 489 908 503 912 514 913 c 0
135 818 m 0
 160 822 190 816 200 806 c 2
 203 804 l 1
 203 548 l 2
 203 382 203 287 204 281 c 0
 207 250 214 222 226 194 c 0
 251 135 299 85 357 57 c 0
 380 45 395 40 418 36 c 0
 445 30 466 30 494 36 c 0
 516 40 531 45 555 57 c 0
 641 100 699 185 707 281 c 0
 708 287 708 382 708 547 c 2
 708 803 l 1
 711 806 l 2
 726 822 789 823 806 806 c 2
 809 804 l 1
 809 547 l 2
 809 380 809 285 808 279 c 0
 799 175 736 85 638 36 c 0
 596 15 556 3 504 -3 c 0
 489 -5 482 -5 456 -5 c 0
 429 -5 422 -5 407 -3 c 0
 355 3 315 15 273 36 c 0
 187 79 126 156 108 245 c 0
 102 273 103 251 102 540 c 2
 102 803 l 1
 105 806 l 2
 110 811 120 815 135 818 c 0
EndSplineSet
EndChar

StartChar: adieresis
Encoding: 228 228 96
Width: 859
VWidth: 910
Flags: HW
LayerCount: 2
Fore
SplineSet
328 708 m 0
 362 713 398 707 407 694 c 0
 411 689 411 687 407 682 c 0
 395 667 343 660 310 671 c 0
 296 676 289 682 289 688 c 0
 289 691 293 696 298 699 c 0
 303 703 317 707 328 708 c 0
489 708 m 0
 523 713 559 707 568 694 c 0
 572 689 572 687 568 682 c 0
 556 667 504 660 471 671 c 0
 457 676 450 682 450 688 c 0
 450 691 454 696 459 699 c 0
 464 703 478 707 489 708 c 0
400 619 m 0
 415 620 461 619 476 618 c 0
 542 611 603 592 650 563 c 2
 657 558 l 1
 657 578 l 1
 658 599 l 1
 661 602 l 2
 676 618 738 619 755 602 c 2
 758 599 l 1
 758 308 l 1
 758 15 l 1
 755 13 l 2
 738 -4 676 -3 661 13 c 2
 658 15 l 1
 657 36 l 1
 657 56 l 1
 650 52 l 2
 640 46 621 36 608 31 c 0
 556 8 501 -3 441 -5 c 0
 321 -8 221 37 157 123 c 0
 138 148 120 180 111 211 c 0
 101 241 96 276 96 308 c 0
 96 392 129 472 190 530 c 0
 245 583 316 613 400 619 c 0
449 582 m 0
 437 583 421 583 410 581 c 0
 365 576 317 549 280 512 c 0
 258 490 243 467 228 439 c 0
 212 406 203 376 198 340 c 0
 196 326 196 289 198 276 c 0
 203 239 212 209 228 177 c 0
 255 121 297 78 348 53 c 0
 383 36 414 29 449 33 c 0
 525 40 600 83 652 147 c 2
 657 155 l 1
 657 308 l 1
 657 460 l 1
 652 467 l 2
 600 531 525 575 449 582 c 0
EndSplineSet
EndChar

StartChar: odieresis
Encoding: 246 246 97
Width: 961
VWidth: 910
Flags: HW
LayerCount: 2
Fore
SplineSet
379 708 m 0
 413 713 449 707 458 694 c 0
 462 689 462 687 458 682 c 0
 446 667 394 660 361 671 c 0
 347 676 340 682 340 688 c 0
 340 691 344 696 349 699 c 0
 354 703 368 707 379 708 c 0
540 708 m 0
 574 713 610 707 619 694 c 0
 623 689 623 687 619 682 c 0
 607 667 555 660 522 671 c 0
 508 676 501 682 501 688 c 0
 501 691 505 696 510 699 c 0
 515 703 529 707 540 708 c 0
445 619 m 0
 461 620 497 620 514 619 c 0
 620 613 712 579 782 523 c 0
 795 512 820 488 830 475 c 0
 845 457 859 432 868 413 c 0
 873 400 881 377 884 364 c 0
 889 341 889 333 889 308 c 0
 889 290 889 281 888 273 c 0
 880 222 862 179 830 139 c 0
 820 126 795 102 782 91 c 0
 717 40 637 8 542 -2 c 0
 439 -14 331 4 248 46 c 0
 210 65 181 87 154 115 c 0
 138 131 128 143 116 160 c 0
 93 195 79 229 73 273 c 0
 71 288 71 327 73 342 c 0
 81 392 99 435 131 475 c 0
 141 488 166 512 180 523 c 0
 249 579 341 612 445 619 c 0
518 581 m 0
 507 582 468 583 461 582 c 0
 442 580 436 580 425 577 c 0
 357 565 294 533 248 487 c 0
 206 444 182 396 174 337 c 0
 172 326 172 289 174 278 c 0
 179 237 192 202 213 170 c 0
 262 96 347 47 444 34 c 0
 460 32 501 32 518 34 c 0
 594 44 663 77 714 127 c 0
 756 170 779 219 787 278 c 0
 788 283 788 295 788 308 c 0
 788 320 788 332 787 337 c 0
 779 396 756 444 714 487 c 0
 663 537 593 571 518 581 c 0
EndSplineSet
EndChar

StartChar: udieresis
Encoding: 252 252 98
Width: 859
VWidth: 910
Flags: HW
LayerCount: 2
Fore
SplineSet
328 708 m 0
 362 713 398 707 407 694 c 0
 411 689 411 687 407 682 c 0
 395 667 343 660 310 671 c 0
 296 676 289 682 289 688 c 0
 289 691 293 696 298 699 c 0
 303 703 317 707 328 708 c 0
489 708 m 0
 523 713 559 707 568 694 c 0
 572 689 572 687 568 682 c 0
 556 667 504 660 471 671 c 0
 457 676 450 682 450 688 c 0
 450 691 454 696 459 699 c 0
 464 703 478 707 489 708 c 0
135 613 m 0
 160 617 190 612 200 602 c 2
 203 599 l 1
 203 427 l 1
 204 255 l 1
 206 242 l 2
 211 208 222 178 238 151 c 0
 263 109 299 77 344 54 c 0
 379 37 414 29 447 33 c 0
 499 38 556 69 593 112 c 0
 627 150 646 192 654 242 c 0
 656 254 656 255 657 427 c 2
 658 599 l 1
 661 602 l 2
 676 618 738 619 755 602 c 2
 758 599 l 1
 758 308 l 1
 758 15 l 1
 755 13 l 2
 738 -4 676 -3 661 13 c 2
 658 15 l 1
 657 43 l 1
 657 69 l 1
 646 61 l 2
 640 56 630 50 625 47 c 0
 612 38 582 23 567 18 c 0
 481 -14 379 -14 293 18 c 0
 271 26 246 40 226 53 c 0
 196 73 166 102 147 131 c 0
 124 165 111 198 105 240 c 2
 103 253 l 1
 102 425 l 1
 102 598 l 1
 105 601 l 2
 110 607 120 610 135 613 c 0
EndSplineSet
EndChar

StartChar: degree
Encoding: 176 176 99
Width: 708
VWidth: 910
Flags: HW
LayerCount: 2
Fore
SplineSet
320 818 m 0
 392 823 471 811 528 786 c 0
 599 756 642 709 654 651 c 0
 657 636 657 608 654 593 c 0
 645 547 616 509 570 479 c 0
 455 407 253 407 138 479 c 0
 92 509 63 547 54 593 c 0
 51 608 51 636 54 651 c 0
 63 697 92 735 138 765 c 0
 184 794 251 813 320 818 c 0
388 780 m 0
 379 781 344 782 337 781 c 0
 303 778 273 770 248 758 c 0
 196 733 165 697 155 649 c 0
 152 635 152 609 155 595 c 0
 165 547 196 511 248 486 c 0
 269 476 298 468 324 464 c 0
 336 462 372 462 384 464 c 0
 457 474 516 510 541 559 c 0
 547 571 550 581 553 595 c 0
 556 609 556 635 553 649 c 0
 543 697 512 733 460 758 c 0
 440 768 413 775 388 780 c 0
EndSplineSet
EndChar

StartChar: quotesingle
Encoding: 39 39 100
Width: 202
VWidth: 910
Flags: HW
LayerCount: 2
Fore
SplineSet
84 818 m 0
 109 822 139 816 149 806 c 2
 152 804 l 1
 152 700 l 1
 152 596 l 1
 149 593 l 2
 146 589 138 586 128 583 c 0
 121 581 117 581 102 581 c 0
 86 581 82 581 76 583 c 0
 65 586 57 589 54 593 c 2
 51 596 l 1
 51 699 l 1
 51 803 l 1
 54 806 l 2
 59 811 69 815 84 818 c 0
EndSplineSet
EndChar

StartChar: grave
Encoding: 96 96 101
Width: 253
VWidth: 910
Flags: HW
LayerCount: 2
Fore
SplineSet
111 818 m 0
 129 821 154 817 167 812 c 0
 177 807 207 778 220 762 c 0
 255 718 276 665 279 610 c 2
 279 596 l 1
 277 593 l 2
 273 588 265 586 255 583 c 0
 248 581 243 581 228 581 c 0
 207 581 199 582 188 587 c 0
 179 592 177 593 177 608 c 0
 174 661 157 711 125 751 c 0
 116 762 103 775 93 783 c 0
 78 795 76 796 76 800 c 0
 76 803 77 804 79 806 c 0
 83 811 96 816 111 818 c 0
EndSplineSet
EndChar
